<?xml version="1.0" encoding="UTF-8"?>
<!-- Generator: visioncortex VTracer 1.0.0-alpha.3 -->
<svg version="1.1" xmlns="http://www.w3.org/2000/svg" width="1254" height="1254" viewBox="0 0 1254 1254" role="img" aria-labelledby="mi2-logo-title">
<title id="mi2-logo-title">MI² Lab logo</title>
<g fill="#FFFFFF">
<path d="M552,139c25.5-6.9,73.9-11,100-7c12.9,2,26.7,1.5,39.9,3.6c2.3,.4,4,1.8,6.1,2.4c6.5,1.7,15.2,1.8,22,3.3c20.7,4.5,42.3,13.5,62.4,20.6c6.1,2.2,14.6,7.8,20.6,11.1c17.5,9.6,35.8,17.8,52.2,29.4c25.2,17.8,49.8,37.7,73,58.1c6.6,5.7,11.7,12.4,18.8,17.5c3,2.1,6,6.9,8,10c3.3,5.1,19.8,19.8,25,25c4.5,4.4,8.3,10.6,12.5,15.4c17.8,20.3,34.7,41.8,50.5,63.6c4.6,6.3,8.7,15.7,14,21c-17.2,22.1-32.1,45.6-49,68c-31.1,41.3-69.4,78.3-107.7,112.8c-2.8,2.5-14.9,14.2-17.3,14.2c-1.9,1.9-3.8,3.4-6,5c-2,2.1-9.3,9-12,9c-4.7,5-11.9,9.9-18,13c-3.3,3.6-7,5.4-11,8c-2.1,2.1-5,3-7,5c-4.2,2.5-8.3,5.4-13,7c-2.6,2.6-6,4-9,6c-19,8.8-77.9,42.5-97,33c.3-3,.7-6,1-9c20.8-3.5,43.7-14.6,61.2-25.9c6.7-4.4,15.3-11.6,22.8-14.1c1.9-3.8,11.1-8.7,15-11c8-8,18.8-15.1,28-22l4-4l4-3c29.2-29.2,57.5-57.6,83-90.4c12.9-16.5,23.4-35.8,36-51.6c5.2-6.6,26.8-41.3,28-48c1.6-8.8-41.8-59.7-49-70c-14-20.1-33-39.1-50.3-56.5c-58.5-58.8-126.2-108.2-209-122.6c-14-2.4-27.4-6-41.9-7c-24.6-1.6-48.5,2.6-72.8,5.1c-14.9,2.4-30.8,6.3-45,11c-4.1,2.2-8.6,3.5-13,5c-13.7,2.2-27,12.3-40,17l-4,2c-3.8,3.1-11.4,7.5-16,9c-51,29.8-97.2,73.8-135.1,119.1c-13,15.6-24.4,32.9-36.9,48.9c-3.9,5.1-25.5,33.9-26,38c-.4,3.4,19.9,32.1,23.1,36.9c21.7,31.9,45.7,61.2,69.9,90.1c16.7,19.9,38.8,37.5,58,55c11.6,10.6,25.9,23.5,39,32c19,12.3,40.4,23.9,59,37c8.4,6,20.6,9.3,30,14c3.3,.5,19.2,4.2,21,6l2,2c.9,3,1,3.9,0,7c-4.2,4.2-14.3,.8-20,0c-2.2,0-2.2,0-6-2c-14.2,0-36.6-14-50-18c-19.2-5.7-34.3-17.5-52-26c-15.6-7.5-31.3-19.5-45-30c-59.1-45.5-109.5-94.6-155.5-152.9c-10-12.6-19.4-25.3-29-38.2c-2-2.6-8.6-9.4-9.5-11.9c-1.9-5.6,17.5-27.6,21-33c24.6-38,66-84.1,99.7-114.5c15-13.5,31.5-25.1,46.3-38.5c10-9,41-32,53-36c2.9-2.9,6.1-4.6,10-6c2.2-2.2,4.1-2.9,7-4l5-2c0-.3,0-.7,0-1c1.7-.7,3.3-1.3,5-2c2.9-2.5,5.2-3.5,9-4c0-.3,0-.7,0-1c6-1.1,12.2-5.9,17.8-8.3c10-4.2,33.5-13.8,43.2-14.7c0-.3,0-.7,0-1c2-.3,4-.7,6-1l4-1c4.9-1,9-3.3,14-4h2c5.8-2.9,7.2-3.2,14-3l6-1Zm15,51c14.8-2,27.5-4.5,39,7c1.6,1.3,6,4.2,6,6l2,2c4.8,4.8,6.1,12.2,9,18c2.8,19.9,1.1,41.7,1.1,61.9c0,37.3-.1,74.7-.1,112.1c2.5,0,4.6-4.6,5.9-6.6c8.3-12.5,13.8-20.9,15.1-36.4c0-12.1,2.3-24.9,2-37V296c0-4.3-2-6.8-2.2-10.8c-.7-11-1.3-34.9,4.2-44.2V221c0-8.1-6.4-20-9-28c.7-.3,1.3-.7,2-1c3.7,3.7,7.5,13.6,8,19c1.9,3.2,3,10.2,3,14v1c.4,1.9,.6,5,3,5c1-2,1-2,3-4c1.2-3.1,2.5-6.1,4-9v-2c0-5.3,1.4-14.4,4-19c1.7-5,2.6-6,8-6c-2.5,2.2-7,9.6-7,13l-1,2c0,3.1,1,12-1,14v1c10.7-6.2,17-11.3,30-11c-.3,1-.7,2-1,3c-11.1-.6-18.9,7.4-28,12l-5,5c-1.7,2.1-8,10.8-8,13l-1,2c-1.5,14.6-6.3,32.5-2,47c.6,2.1,1,3.8,1,6c.3,1,.7,2,1,3c5.8-15.7,20.3-18.4,28.9-30.6c6.5-9.1,5.2-21.3,14.2-27.8c1.5-1,3.1-1.4,4.9-1.6c-1.4,4.3-4.9,5.1-7.1,8.7c-4.2,6.7-2,15.1-7.9,22.3c7.6,0,16.5,0,23.3-4c3.2-1.9,5.1-4.3,8.7-6c-1,13.1-22.2,11.3-30.6,14.4c-9,3.3-18.2,9-24,16.7C650.3,310.6,650.6,337,651,358c-.3,0-.7,0-1,0l-1,6c-.9,6.9-.9,6.9-2,8c-2.6,15.8-17,25.4-22,40.5c-5,15,.8,42.6-2.4,60.5c-1.5,8.1-6.2,19.2-10.6,26c-4.1,6.3-10.5,10.3-13.9,17.4c-6.4,13.6-10.7,62.3,1.9,72.6c-.7,.7-1.3,1.3-2,2c-4.2-1.4-5.8-5.2-7.5-9c-8.2-18.6,.9-39.6-7.2-58.6c-3.8-8.8-18.3-12.8-25.3-17.4c-3.3-2.2-6.1-7.1-9-10c-4.8,2.5-9.8,2.2-15.1,2.2c-21.5-.2-39.8-10.3-51-28.9c-3.2-5.3-4.7-18.9-7.9-22.3c-2.2-2.3-8.2-4.5-11-6.5c-1.8-1.3-1.9-2.9-3-4.5c-8.5-12.4-11-17.4-11-33c-32.3,0-64.7,0-97,0c-1.1,5.4-2.4,7.4-7.7,9.7c-17.3,7.6-27.3-20.8-8.4-26.3c8.3-2.3,14.8,2.5,16.1,10.6c11.7,0,23.3,0,35,0c.3-.7,.7-1.3,1-2c-2.5-5-4.4-7.1-5-13c-.3,0-.7,0-1,0c.1-9.9,3.1-26.9-4-34c-3.3-2.2-5.9-4.7-6.2-8.8c-.1-1.9-.6-6.6,.2-8.2c2.9-5.9,14.2-10.7,20.3-7.6c6.7,3.4,9.5,16.8,3.8,21.9c-2.9,2.6-4.3,3.9-8.1,4.7v32l1,4c1.2,2.5,2.5,4.7,4,7c6,2,6,2,8,4c6.1,.1,44,1.8,47,0c.5-.3,1.6-2.4,2-3c0-1.7-2.6-3.5-3.5-5.1c-5.6-9.3-9.2-16.6-10.4-27.6c-1.4-13.5,4.4-27.3,12-37.9c1.3-1.9,4.8-3.1,5.2-4.3c1.4-3.8-.7-9.1-.6-13.2c.3-14.7,8.6-34.5,23.3-39.9c0-.3,0-.7,0-1c1.7-.3,3.3-.7,5-1c3.1-2,4.4-2.2,8-2c0-2.7,0-5.3,0-8c0-7.1,6.6-16.7,11-22c.8,0,13.9-12.6,24-12c0-.3,0-.7,0-1c7.5,.2,10.5,1.6,14-6c0-1.6,.9-1.9,2-3v-1c2.8-3.8,5.3-8.4,10-10c2.2-3.3,3.3-3.8,7-5c2.9-2.5,5.2-3.5,9-4ZM771,305c-.9-2.7-1.5-5.2-2-8c-3-3.7-4-6.2-4-11c4,3.6,6.1,8,8,13v1c3.5,5.2,2.1,13.9,2,20l1,5c3.1,5.7,5.5,15.5,10,20c-.2-10.9,4.9-18.3,6.8-28.4c.9-4.5,.3-10,.2-14.6c1,.3,2,.7,3,1c-.1,4.2,1.2,8.2,.8,12.3c-.5,5.8-4,10.9-5.2,16.7c-2.6,13.3-4.6,34.4-4.6,48c-.1,8.6,.2,24.4,4,32c1-2,1-2,3-4c4.3-5.4,7.1-11.1,8-18c0-3.8,.2-4.9,2-8c1.4-4.3,4.9-6.9,8-10c.7,.3,1.3,.7,2,1c-1.5,4.5-5.7,8.5-8,13c-.3,2.7-.7,5.3-1,8c-.3,0-.7,0-1,0c-1,5.8-1,5.8-1,8c1.3-.3,2.7-.7,4-1c0-.3,0-.7,0-1c2.7-.3,5.3-.7,8-1c4.5-1.9,5.3-6,10-6c-1.8,5.4-6.5,8.5-12,9l-3,1c-5,1.5-9.2,3.2-13,7c-5,8.2-8.8,18.6-11,28c0,2.3,0,4.7,0,7c-.3,0-.7,0-1,0c-.6,5.1-1.7,8.5-4,13c-1,4.9-1,4.9-1,6c6.4-3,18.4-9.7,22.3-15.5c2.3-3.5,2.8-7.1,5.7-10.5c.7,.3,1.3,.7,2,1c-2,17.2-22.5,24.5-34,36c-4.8,5.8-4.8,5.8-7,8c-.9,1.5-2.3,5-4,5c-1.6,2.2-3.1,4.1-5,6c-2.7,4.9-2.7,4.9-5,6l-1,2l-3,5c-2.8,5.6-6.1,11.1-7.6,17.2c-1.8,7.8-1.9,16.2-4.4,23.8v7c0,1.7,0,3.3,0,5c.3,0,.7,0,1,0c1.5-4.5,5.7-10.7,9-14c1.9-2.8,3.9-5.4,6-8c11-11,24.1-16.7,36-26c6-4.7,9.1-10.3,15-15l1-3c4.2-6.3,8.8-13.2,12-20c5.3-13.6,10.3-25.7,14-40v-2c3-21.7,4.3-42.1,2-64c-.8-7.6-4.1-14.5-5-22c-8.1-.9-15-9.6-11-18c1.6-3.4,3.6-3.8,2.5-8.5c-1.2-5.4-9.7-20.6-12.8-26.1c-11.8-20.7-28.8-40.9-48.1-55.1c-5.3-4-11.2-7.5-16.6-11.3c-2.6-1.8-5.3-1.3-8-4c-5.9,2-7.8,6-15,5.4c-3.4-.3-7.1-3.3-8.7-6.4c-10.6-19.5,24.9-30.4,23.7-5c36,14,69.5,53.2,84,88c2.3,5.4,7,11.2,8,17c7.2-.5,12.5,2.9,13.8,10.3c1.6,9-6.1,9.9-5.9,15.6c.2,6.9,3.6,15.6,4.5,22.9c2.9,22.7,2.1,44.7-2.4,67.2c-.3,0-.7,0-1,0c-.9,7.8-.9,7.8-2,10c-1,6.2-5.8,20.8-10,25c-1.8,6-6.6,15.6-11,20c-1.1,3.4-2.7,5.3-5,8c-.9,1.5-2.3,5-4,5c-1.3,1.3-2.7,2.7-4,4c7.1,0,15.9-2.6,23-4c28.4-5.8,29.7-9.3,43-34v-1c1.8-5.6,1.1-12.2,1-18c-.3,0-.7,0-1,0c-.3-2.7-.7-5.3-1-8c-.3,0-.7,0-1,0c-.2-4.8,.2-8.5,2-13c1,0,2,0,3,0c-1,3.4-1.1,6.5-1,10c.4,3.5,.4,6.8,2,10c.9,3.9,.9,3.9,2,5c.7-1,1.3-2,2-3c2.6-5.2,3.3-6.3,8-10c1-2,1-2,4-3c4.4-2.4,11.2-4.6,16-3c-.8,1.6-13.8,6.4-17,8l-3,3c-2.7,3.5-5,7.1-7,11c-1.2,3.5-2.5,10.5-5,13l-1,5c-.7,1.7-1.3,3.3-2,5c3.1-.5,7.3-3,10-3c4.3-3.4,8.1-4.9,12-9c.7,.3,1.3,.7,2,1c-1.5,4.4-4.3,6.3-8,9c-5.2,2.7-11.5,4.4-16.2,7.8c-6.6,4.8-11.3,11.1-18.8,15.2c9.2,4.8,16.3,9.4,27,9c-.3,1-.7,2-1,3c0,.3,0,.7,0,1c-3.2,.1-5.9-.1-9-1c-6.1-.7-9.6-3.4-15-6l-6-1c-6.4-.2-11.7,2.3-18,3c.7,.7,1.3,1.3,2,2c4.3,1.6,6.3,4.5,9,8c3.9,3.9,6.9,7.7,12,10c1.7,0,3.3,0,5,0c0,1,0,2,0,3c0,.3,0,.7,0,1c-7.4,.3-15.5-3-19-10c-3.7-3-7.5-7.5-12-9c-27-5.3-50.8,11.8-69,30l-1,2c-2.1,3.6-4.7,6.6-7,10c11.4-4.1,18.2-9,31.1-9.1c9.1-.1,24.9,6.1,32.9,2.1c3-1.6,5.7-2.4,9-3c0,1,0,2,0,3c-2,.7-4,1.3-6,2c-6,3.6-13.2,3.1-20,3c4.5,4.5,8.9,8,13,13c2.9,2.5,5.2,3.5,9,4c0,1,0,2,0,3c-5.5,.4-7,0-11-4c-3.7-2.5-4.2-5.5-7.3-8.1c-16.1-13.3-26.2-8.7-43.7-1.9c-3.4,1.6-5.9,4-9,6c-3.9,4.7-6.9,9.2-9,15c-.3,0-.7,0-1,0l-1,4c-2.1,6.6-5,15-10,20c-4.1,5.6-6.7,8-14,8c3.7-3.8,7.4-6.2,10-11c4.2-6.3,6.1-11.8,8-19c-.2-3.8,3.8-30.3,5-34c0-11.1,2.6-27.3,8-37c2.9-5.3,4.6-9.8,8-15c1.7-3.5,4.3-6.3,7-9l3-4c7.6-9.6,11.4-18.3,17-29l1-3c.9-6.3,3.4-12.8,5-19v-1c0-5.8,2.1-11,2-17V400c-5.7-22.9,7.3-49.7-12-69c-7.1-3.5-14.4-8.3-15-17c1,0,2,0,3,0c.6,6.4,4.8,11.2,11,13l1-2v-3c-.3,0-.7,0-1,0c0-5.7,0-11.3,0-17Zm-86,47c.4-12.4-6-26.9-3-39c4.8-.6,10.4-2.5,15-1c.9,10.1,2.9,18.4,5,28c.6-2.1,9.1-23.1,9.8-24.1c1.4-1.9,2.6-2.2,4.8-1.4c2.1,.7,5.1,2.8,5.3,5.2c.7,6.8-7.9,13.7-7.9,20.3c10.2-3.4,7.1-11,25-11c3.5,8.4,3.5,8.4,2,13c-6.1,1.2-12.5,1.5-17,6c3,3,4,6,5,10c-13.9-.5-17.6,4.7-28,12c-7.3,11.3-2.4,18.6-19,18c-6.9,0-11.7,5.9-18,8c0-3.7,0-7.3,0-11c0-3.1,.5-4.4,2-7l1-4c1.3-3.6,3-6.8,5-10c2.1-4.2,8.5-10.5,13-12Zm26,15c5.1-5.1,37.1-9.3,44-7c.8,5.1,1.1,9.8,1,15c-5.9,2.3-11.9,2.5-18.2,3.2c-11.9,1.5-14.5,15.3-18.8,23.8c-1.1,9.1-4.5,21.5-11,28c-6.3,7.2-15.1,5.1-22,12c.7,.7,1.3,1.3,2,2c1-.7,2-1.3,3-2c3.5-2.1,6.9-2.5,11-3c-1.9,5.9-1.9,5.9-3,7c-2,6.3-7.2,16.8-5,23c2.9-1.4,9.9-28.9,16-35c8.9,17.8,3,25.7-.9,43.2c-.8,3.7-2.5,3.7-1.1,7.8c1-.3,2-.7,3-1c.7-4.9,3.6-17.6,7-21c1.3,2.7,2.7,5.3,4,8c.7,0,1.3,0,2,0c.4-6.8-5.2-14.5-5-25l-1-3c-1.1-1.1-1.1-1.1-2-7c-.3,0-.7,0-1,0c-1.4-7.3,1-8.3,3-15c1-2,2-4,3-6c.7,1.7,1.3,3.3,2,5c2,2,3.4,4.4,6,5.6c5.2,2.3,8.9-1,12,5.4c6.4,6.4,5.1,16.7,5,25c-.3,0-.7,0-1,0c-.9,6.9-.9,6.9-2,8c-1,5.9-13.2,34-19,34c-6.9,10.2-22.9,11.3-29-1c-3.1-2-4.8-4.1-7-7c-4.8-4.5-8.7-10.3-12-16c-2.3-3.5-4.5-6-6-10c-5.3-10.6-10.8-19.7-12-32c-.3,0-.7,0-1,0c-.1-5.8,0-15,3-20c2.5-7.5,10-17.1,18-19c0-.3,0-.7,0-1c27.3,.4,14.2-7.2,28-21c2-3,2-3,5-4Zm13,45c-.3,0-.7,0-1,0c-.3-16,4.3-27.8,21-30c6.1-.8,10.1-1.9,16,1c.2,13.6-.8,14.4-14,14c-2.1,2.1-2.4,3.1-3,6c7.2,6.5,11.9,22.1,5,30c-2.1-2.9-4.4-5.4-7-8c-3.6-1.3-7.2-2.3-11-3c-.3,0-.7,0-1,0c-.7-1.3-1.3-2.7-2-4c-1-2-2-4-3-6ZM360,450c0-2.8,1.2-3.2,3-5c6.3-6.6,11-6.5,19-2c1.3,1.3,4,3.2,4,5c8.6,12.9,71-11.1,71,16c-6.3,0-8.5-7-15-7H387c-3.9,14.8-27,14.3-27,2c-.3,0-.7,0-1,0c-.1-3.2,.1-5.9,1-9Zm64,50c5.1-15.4,22.5-11.5,27,2c17.7,0,35.3,0,53,0c.3,1.3,.7,2.7,1,4c-16.3,3.7-38.1,1.1-55,1c-1.2,7.6-11.3,14.6-19,11c-2.2-1-5.9-6.8-7-9c-.3,0-.7,0-1,0c-.1-3.2,.1-5.9,1-9Zm205,7c2.8-.9,8.9-2.1,11,0c3.9,1.7,3.9,1.7,5,4c2.7,2.7,4.9,12.1,2,15c-1.4,3.5-4,7-8,7c-1.3,1.3-2.1,2.6-2.2,4.4c-1.6,19.8,0,41,0,60.9c.1,42.2,.1,84.5,.2,126.7c-1.7,0-3.3,0-5,0c-4.3-17.8-1-57-1-77c0-14,2.3-110.7-2-115l-2-1c-5.7-5.4-9.8-14.2-3-21c2-3,2-3,5-4Zm70,35c6.7-.4,10.7,.4,14,7c3.2,3.2,2.2,6.8,2,11c-.7,.3-1.3,.7-2,1c-.3,1-.7,2-1,3c-.3,0-.7,0-1,0l-2,2c-3.9,2-3.9,2-5,2c0,8.7,0,17.3,0,26c-.3,0-.7,0-1,0c-.7,2-1.3,4-2,6c-.3,0-.7,0-1,0c-.3,1-.7,2-1,3c-.3,0-.7,0-1,0c-5,6.6-5,6.6-10,8l-6,1c-12,3.4-20.5,4.3-23,19c-.3,0-.7,0-1,0c-2.6,7.9-1.1,19.9-1.1,28.4c0,20.8,.1,41.7,.1,62.6c-6.3,2.1-6.2-1.5-6.3-6.9c0-10-1.5-80.4,.3-84.1c1.4-3,2.4-3,3-7c4.6-9.9,11-15.5,22-17h4c4.9-1,4.9-1,13-6c5.8-11.7,5.1-20,5-33c-8.5,0-10.2-9.6-10-16c1.8-5.4,5-9.7,11-10ZM568,606c5.3,0,10.7,0,16,0c0,.3,0,.7,0,1c6.2-.3,11.7,2.7,16,7c3.6,1.2,5.7,5.6,8,9c2.3,5.9,5,10.4,5,17c2.4,7.6,1.1,18.4,1.1,26.4c0,18.2-.1,36.4-.1,54.6c-.3,0-.7,0-1,0c-1,1-1,1-4,2c-.7-.7-1.3-1.3-2-2c-.3,0-.7,0-1,0c0-28,0-56,0-84c-3.9-11.6-7.9-22-22-24c-6.1,.1-14.8,1.5-20-2c-4.9,0-7.5-2.5-10.8-5.8c-11-11-9.5-21.5-9.2-36.2c-22-10.6-3.3-37.7,12.7-23.3c2.1,2,4.4,4.3,4.4,7.3c.2,7.5-3.4,13.8-11.1,15c-.1,13.8-1.1,36.7,18,38Zm194,1c3.1-.9,5.8-1.1,9-1c0,.3,0,.7,0,1c2.7,.5,3.7,.4,5,3c1.2,1.1,3,2.3,3,4c4.2,13.8-8.6,23.1-21,16c-.3,.7-.7,1.3-1,2l-4,4l-1,2c-3.1,2.6-6.1,3.8-10,5l-2,1c-12.3,2-25.5,1.1-38,1c-3.6,1.8-7.5,2.8-10.5,5.5c-1.3,1.2-2.8,3.5-4.5,3.5c-15.7,21.4-3,40.1-9,63c-1.7-.3-3.3-.7-5-1c-.1-18.4-4.9-51.1,9-65c18.9-18.9,33.3-9.6,57-13c1.1-1.1,1.1-1.1,6-2c2.7-2.7,5.3-5.3,8-8l1-1c0-4.1-.2-8,1-12l1-4c2.1-2.2,3-3,6-4ZM583,663c-1.5-5.2-4.3-6.6-8-10c-21-19.1-49.8,4-70-22c-15,4.6-31.4-9.1-17-22c6.1-5.4,16.9-3.2,21,4c4.5,8-5.3,16.8,10.7,23c21.5,8.4,43.3-5.4,61.3,14c3.4,3.7,5.7,6,7,11c1.6,3,2.4,5.7,3,9c2.4,14.4,1.1,30.4,1,45c-2.5,1.4-3.3,2.4-6,1c0-.3,0-.7,0-1c-.3,0-.7,0-1,0c.1-17.4,1.3-34.9-2-52Zm13,119c4.5-2.8,9.1-2.5,14-1c11.3,1.5,17.5,5.5,22,16c11,25.6-16.9,45.4-33,61.7c-2.3,2.4-6,4-6,7.3c8.3,.1,29.1,2.7,36-.8c3.3-1.6,6.4-5.6,9-8.2c.7,.3,1.3,.7,2,1c-1.1,8-5.1,15.3-7,23c-20.7,0-41.3,0-62,0c0-1-.3-5.4,0-6c.8-1.4,4.9-2.8,6.3-4.5c13.9-16.3,37-33.4,38.7-56.5c1.8-24.8-29.7-24-39-3c-15.3-3.8,9.4-27.7,19-29Zm375,17c1.3-.3,2.7-.7,4-1c4.3,13.8,1,51.8,1,68c.7-.3,1.3-.7,2-1l1-1c2.9-2.9,5.2-5.2,9-7c3.4-3.3,3.4-3.3,12-4c12.9-4,21.1,.5,32,6l4,3c4.4,3.4,10.2,9.7,12,15c1.9,4.8,1.9,4.8,3,7c2.1,3.8,2.6,7.9,4,12c2.8,20.6,.2,35.3-9.3,53.4c-2.2,4.1-5.9,6.1-7.7,10.6c-.3,0-.7,0-1,0l-2,2c-12.3,13.5-35,14.2-51.6,9.8c-4.4-1.2-7.5-4.6-11.9-4.7c-5.9-.1-12.1,5.1-17.5,6.9c.1-33.5,.1-67.1,.2-100.6c0-15.4,1.8-33.1-.2-48.3c-.4-3.5-1.5-6.6-4-9.1c-3.1-1.8-5.5-2.2-9-2c-.3-1-.7-2-1-3c4.9-.9,7.9-4.3,13-5c3.6-2.4,13.6-6.4,18-7ZM397,816c.9-4.9,4.1-7.9,5-13c15.5-.1,39.4-3.3,54,1c-.3,1-.7,2-1,3c-9.6-.5-18.3,5.1-20.5,14.7c-2.8,12.3,5.3,128.2,10.3,138.1c4.4,8.7,10.7,10,19.2,12.2c-.3,1-.7,2-1,3c-23.3,0-46.7,0-70,0c.3-1,.7-2,1-3c6.7-.9,11.7-4.7,15-10c9.7-15.4-5.3-104-5-128c-3.4,1.7-6.9,13.6-8.8,17.6c-16.4,34.2-29.3,70.9-47.8,104c-3.1,5.6-3.6,14.4-8.6,18.7c-2,1.8-8.1,.8-10.8,.7c-3.4-8.8-8.8-16.3-12.5-24.6c-1-2.1-.7-4.4-1.5-6.4c-.5-1.4-2.4-2.6-3-4c-1.9-4.2-2.9-9.9-5-14c-3.4-6.7-7.7-13.6-11-20.5c-6.1-12.4-10.7-25.5-16.7-37.8c-4.9-9.9-10.7-20-14.3-30.7c-3.4,10.4-1.3,27-2,38.1c-1,15.9-2.2,31.7-3,47.7c-.4,9.6-3.6,23.7-.6,32.9c3.5,10.3,9,14.5,19.6,16.3c-.3,1-.7,2-1,3c-18.7,0-37.3,0-56,0c.3-1,.7-2,1-3c6.5-1.1,13.4-4.6,16.8-10.5c6-10.2,13.5-108,13.2-124.5c.1-6,.4-12.1-1-18c-4.5-9-13.8-11.3-23-12c-.3-1.3-.7-2.7-1-4c19.3,0,38.7,0,58,0c2.2,11,9.7,20.4,13,31c5.7,18.3,15.5,38.3,24,55c5.6,11,13.1,38.1,21,46c3.4-4.3,3.5-8.5,6-13c5.3-9.7,8.8-18.9,13.1-29c11.2-25.8,24.6-50.5,34.9-77Zm495,36c4.4,.4,16.3,3.5,18,7c3.9,1.3,5.2,3.4,7,7c5.1,5.1,6.3,14.2,6,21c-.1,12.8-3.4,59.2,1.6,68.3c2.9,5.2,9.9,5.6,13.4,.7c1,.3,2,.7,3,1c-3.1,21.2-36.5,24.6-39-1c-14.9,12.1-20.9,19.4-42,19c0-.3,0-.7,0-1c-4.2-.5-6.8-1.2-10-4c-4.7-2.2-8-4.1-10-9c0-2.4-3.6-8.1-4-12c-.3,0-.7,0-1,0c-.3-19.4,5.5-29.4,22-39c3.3-1.9,5-3.4,9-4c4.9-2.6,9.5-3.3,15-4c4.8-2.4,14.5-1.1,20-1c.1-14.3,2.4-27.2-10-37c-1.1,0-1.1,0-5-3c-38.9-.6-23.2,20.5-33.7,26.2c-2.2,1.2-5.1,.8-7.3,0c-11.8-4.3,4.1-24.4,10-28.2c11.6-7.5,23.6-7.2,37-7ZM711,965c2.5-4.1,6.5-9.8,7.1-14.5c2.2-16.3,.2-35.6,.2-52.2c-.1-24.3,1.5-49.6,0-73.8c-.2-2.2-2.1-7.8-3.3-9.5c-2.8-4-13.3-8-18-9c.3-.7,.7-1.3,1-2c23.3,0,46.7,0,70,0c-.3,1-.7,2-1,3c-8.3-.5-16.3,3.5-20.2,11c-4.5,8.8-4.9,136.3-1.5,139.8c6.8,7.3,36.1,5.4,44.7,2.2c15.8-6,19.3-17.9,28-31c1,.3,2,.7,3,1c-2,14.7-6,28.4-8,43c-9.8,2.8-23.3,1.1-33.5,1.1c-24.2,0-48.3-.1-72.5-.1c-2.7,0-5.3,0-8,0c-.3-.7-.7-1.3-1-2c2.9-2.5,5.2-3.5,9-4l4-3Zm-77,67c3.3,3.3,3.4,6.8,2,11v1c-2,2.1-3,4-6,4h-4c-1.8,0-4.6-3.6-6-5c-3.3-9.9,5-16.6,14-11Zm-374,51c2.1,7.3,1.1,16.4,1,24c.7-.3,1.3-.7,2-1c-.1-5.1-1.6-13.4,2-17c.3,1,.7,2,1,3c1,.3,2,.7,3,1c0,5.7,0,11.3,0,17c-1.3,.3-2.7,.7-4,1c.1-6,.5-12.1-1-18c0,4.7,0,9.3,0,14c-2.4,1.2-2.2,1.6-3,4c-1.3-.3-2.7-.7-4-1c0-.3,0-.7,0-1c-13.5,9-22.6-19.8,0-16c0-3,0-6,0-9c1-.3,2-.7,3-1Zm-63,1c1.7,.3,3.3,.7,5,1c1.6,5.4,5.2,9.5,6,15c3.9-1.9,6.4-11.9,8-16c1.7,0,3.3,0,5,0c0,8.7,0,17.3,0,26c-1-.3-2-.7-3-1c0-5.7,0-11.3,0-17c-3.2,3.2-6.4,9.5-7,14c-3.9-.9-3.9-.9-5-2c-3-1.5-2-3.5-5-5c0,4,0,8,0,12c-1.7,0-3.3,0-5,0c-.1-8.3-1.4-19.1,1-27Zm192,10c0-3.3,5.8-2.8,8-2c3,0,3,0,6,1c.2,5.5,1.8,15.6,0,20.5c-2.7,7.3-17,8.6-14-.5c3.8,1.3,6.1,2.3,10,1c.3-1.7,.7-3.3,1-5c-10.8,2.1-17.9-4.7-11-15Zm119-1c3-1.8,4.6-2.2,8-1c.7,0,1.3,0,2,0c0-3,0-6,0-9c1,.3,2,.7,3,1c0,8.7,0,17.3,0,26c-5.7-1.1-10.6,1.4-15-3c-.3,0-.7,0-1,0c-.1-4.4-1.3-9.7,2-13l1-1Zm297,17c-.3,0-.7,0-1,0c0-8.8-.9-18.4,1-27c1.3,.3,2.7,.7,4,1c.3,1.3,.7,2.7,1,4c-1.3,.7-2.7,1.3-4,2c.7,.7,1.3,1.3,2,2c0,6,0,12,0,18c-1,0-2,0-3,0Zm-23-17c2.7,3,3.3,5,3,9c-.3,0-.7,0-1,0c-3.7,0-7.3,0-11,0c2.3,9.2,6.3,1.3,11,6c-16,16-20.9-26.9-2-15Zm87,0c4.7-2.9,7.9-2.6,11,2c-3.7,1.2-6.9-.6-10,1l-1,1c0,12,1.5,9,11,9c-.3,1-.7,2-1,3c-6.3,1.1-10.3,3-13-4c-.3,0-.7,0-1,0c-.2-5.2,.2-8.2,4-12Zm83,16c-1.3,.3-2.7,.7-4,1c0-8.7,0-17.3,0-26c1.3-.3,2.7-.7,4-1c0,3.3,0,6.7,0,10c20-10.3,11.9,27.9,0,16Zm56,0c0,.3,0,.7,0,1c-12.1,3.4-13-10,0-11c.3-1,.7-2,1-3c-3.4-1.2-5-.8-8,1c-.3-1.3-.7-2.7-1-4c4.7-2.9,8.5-2.3,12,2c1.6,4.8,1,10.1,1,15c-1.7-.3-3.3-.7-5-1Zm-635-9c0-.3,0-.7,0-1c1.7,0,3.3,0,5,0c.3-1,.7-2,1-3c-3.4-.8-5.7-1.1-9,0c1-2.9,.6-3.1,3.8-3.6c15.4-2.5,5.3,10.7,9.9,15.3c.4,.4,.9,.9,1.3,1.3c-1.3,.3-2.7,.7-4,1h-3c-8.9,3.2-12.3-7.6-5-10Zm557,3c3.3-4,5-4.5,10-4c-.3-1.3-.7-2.7-1-4c-2.7,0-5.3,0-8,0c1.2-2.4,3.3-4.1,6.1-3.9c7.8,.4,6.1,10.3,5.9,15.9c.7,.3,1.3,.7,2,1c0,.7,0,1.3,0,2c0,.3,0,.7,0,1c-9.8,0-23.7,1.8-33-1c0-8.3,0-16.7,0-25c1.3-.3,2.7-.7,4-1c0,7.7,0,15.3,0,23c3.7,0,7.3,0,11,0c.7,0,1.3,0,2,0c.3-1.3,.7-2.7,1-4Zm38,3c-.7-3.2-2.2-8.8,.2-11.2c15.4-15.3,20,15.2,9.8,15.2c-4.6,1.7-8.4,.8-10-4Zm-498,4c-8.8-4.4,1.4-11.8,8-11c-.3-1.3-.7-2.7-1-4c-3,0-6,0-9,0c2.1-3.1,3-3.8,6.8-4c9.2-.4,5.7,11.2,7.2,17c0,1,0,2,0,3c-4,1.2-7.5-.1-12,0c0-.3,0-.7,0-1Zm206,0c-6.3,0-9-22.7,8-17c0-3,0-6,0-9c1.3-.3,2.7-.7,4-1c0,8.7,0,17.3,0,26c-1,0-2,0-3,0c-3.3,1.1-5.8,2.6-9,1ZM0,1254c418,0,836,0,1254,0c0-418,0-836,0-1254C836,0,418,0,0,0C0,418,0,836,0,1254ZM493,572c0-3.4-2.5-4-4.3-6.7c-5.2-7.9-3.4-14.3-6.2-21.8c-1.5-4.3-5.5-4.2-5.5-9.5c2.7,.5,5.4,1.5,7,4c4.4,7.1,2.7,17.3,7.4,23.3c11.1,14.3,25.9,16.3,35.3,33c1.4,2.4,1.1,3.2,.3,5.7c-1.3-.3-2.6-.7-4-1c-3.2-24.5-35.8-17.9-50.2-25.6c-11.6-6.1-15.5-18-29.8-19.4c-.3-1.3-.7-2.6-1-4c15.7-.7,18.9,11.9,30.5,17.9c7.2,3.7,13.4,1.8,20.5,4.1Zm64,231c-.3,1.3-.7,2.6-1,4c-11-.6-17.9,6.7-20.7,16.7c-2.8,10.1-.6,26.9-.6,37.7c0,29.6-1.8,60.6,0,90.1c.2,3.1,2.6,8.6,4,11.4c2.9,5.8,12,7.4,17.3,10.1c-.3,.7-.7,1.3-1,2c-23.7,0-47.3,0-71,0c.3-1.3,.7-2.6,1-4c10.1,.8,15.8-8,19-16.3c3.9-10,1.3-29.8,1.3-40.8c0-29.1,2-59.6,0-88.4c-.2-2.5-1.9-7.1-2.9-9.3c-3.2-6.7-11.8-8.3-18.4-9.2c0-1.3,0-2.6,0-4c24.3,0,48.7,0,73,0ZM323,1041c.3-1,.7-2,1-3c49.3,0,98.7,0,148,0c0-.3,0-.7,0-1c43.7,0,87.3,0,131,0c.3,1.3,.7,2.6,1,4c-10.3,2.7-24,1.1-34.8,1.1c-26.6,0-53.1,0-79.5-1.2c-55.1-2.5-111.5,0-166.7,.1Zm616-3c-.3,.7-.7,1.3-1,2c-94-.4-187.9,2.1-282,2c-1.9-6.4,1.3-5.1,6.5-5.1c23.8-.1,47.6,0,71.5,0c68.3-.1,136.5,1.2,205,1.1Zm-523,49c-2-1-2-1-3-2c-.3,1-.7,2-1,3c-1.3-.3-2.6-.7-4-1c.6-2.1,1-3.8,1-6c2-1,2-1,5-1c.8,2.3,1.4,4.6,2,7Zm-106-4c1.3,.3,2.6,.7,4,1c0,7.7,0,15.3,0,23c.7,.3,1.3,.7,2,1c-.3,1-.7,2-1,3c-1.3-.3-2.6-.7-4-1c-2-8.6-1.1-18.2-1-27Zm281,0c1,.3,2,.7,3,1c0,7.7,0,15.3,0,23c1,.3,2,.7,3,1c-.3,1-.7,2-1,3c-1.3-.3-2.6-.7-4-1c-2-8.6-1.1-18.2-1-27Zm25,5c-1-.3-2-.7-3-1c.3-1.3,.7-2.6,1-4c1,.3,2,.7,3,1c-.3,1.3-.7,2.6-1,4Zm95-5c1,.3,2,.7,3,1c0,7.7,0,15.3,0,23c1,.3,2,.7,3,1c-.3,.7-.7,1.3-1,2c-1.6-.3-3.3-.7-5-1c0-8.7,0-17.3,0-26Zm77,0c1,.3,2,.7,3,1c0,7.7,0,15.3,0,23c1,.3,2,.7,3,1c-.3,.7-.7,1.3-1,2c-1.6-.3-3.3-.7-5-1c0-8.7,0-17.3,0-26Zm8,0c1.3,.3,2.6,.7,4,1c0,7.7,0,15.3,0,23c.7,.3,1.3,.7,2,1c-.3,.7-.7,1.3-1,2c-1.6-.3-3.3-.7-5-1c0-8.7,0-17.3,0-26Zm-526,1c-.3,1.3-.7,2.6-1,4c-1.3-.3-2.6-.7-4-1c0-1,0-2,0-3c1.7,0,3.3,0,5,0Zm64,26c-1-.3-2-.7-3-1c0-8.3,0-16.7,0-25c1,.3,2,.7,3,1c0,8.3,0,16.7,0,25Zm210-18c-1.9,5.8-1.1,13-1,19c-1.3-.3-2.6-.7-4-1c0-8.7,0-17.3,0-26c1.7,0,3.3,0,5,0c1.7,5.9,5.3,10.1,7,16c.7,0,1.3,0,2,0c2-6.4,4.3-16.9,12-15c0,8.3,0,16.7,0,25c-1.3-.3-2.6-.7-4-1c0-5.7,0-11.3,0-17c-3.4,4.5-4.4,9.8-8,14c-3.8-1.3-8.2-9.7-9-14Zm191,18c-1.3-.3-2.6-.7-4-1c0-8.3,0-16.7,0-25c1.3,.3,2.6,.7,4,1c0,8.3,0,16.7,0,25Zm-125-18c-1.2,3.6-1.4,3.1-5,4c0,3.7,0,7.3,0,11c1.7,0,3.3,0,5,0c-.3,1.3-.7,2.6-1,4c-9.9,.5-8.2-8.6-8-16c-1-.3-2-.7-3-1c.8-2.4,.6-2.8,3-4c0-1.3,0-2.6,0-4c1.3,.3,2.6,.7,4,1c0,1.7,0,3.3,0,5c1.7,0,3.3,0,5,0Zm416,0c-1.2,3.6-1.4,3.1-5,4c0,3.7,0,7.3,0,11c1.7,0,3.3,0,5,0c-.3,1.3-.7,2.6-1,4c-1.6,0-3.3,0-5,0c-2.5-5.3-2.2-10.3-2-16c-1-.3-2-.7-3-1c1-2,1-2,3-3c0-1.6,0-3.3,0-5c1,.3,2,.7,3,1c0,1.7,0,3.3,0,5c1.7,0,3.3,0,5,0Zm-258,15c-.3,1-.7,2-1,3c-2,0-4,0-6,0c-1.3-5-1.1-9.9-1-15c-1-.3-2-.7-3-1c1-2,1-2,3-3c0-1.3,0-2.6,0-4c3.4,1.1,3.4,1.5,4,5c1.3,.3,2.6,.7,4,1c-1.3,2.7-2.2,2.3-5,3c0,3.7,0,7.3,0,11c1.7,0,3.3,0,5,0Zm-528-1c-.3,1.3-.7,2.6-1,4c-18.8,4.8-17.4-20.9-4.2-18.5c2.7,.4,4.4,1.8,5.3,4.2c1,2.5,1,4-.1,6.3c-3.7,0-7.3,0-11,0c.3,1.3,.7,2.6,1,4c3.7,1,6.3,1,10,0Zm48,0c-6.1,18.2-27.1-13.7-6.8-14.7c3.1-.1,4.7,.6,6.8,2.7c-2.9,2.9-5.2,1.7-9,1c-6.1,9.9-.1,12.7,9,11Zm5-9c-.3-1.3-.7-2.6-1-4c15.2-9,13,8.3,13,17c-.6-.2-1.1-.5-1.7-.6c-4.1-1-15.1,5.9-11.9-6.5c.4-1.9,.6-2,2.3-2.7c2.4-1,4.8-1.7,7.3-2.2c-.3-1-.7-2-1-3c-3.4-.2-4.5-.5-7,2Zm50,13c-1-.3-2-.7-3-1c0-5.7,0-11.3,0-17c17.7,5.9,26.1-14.5,25,18c-1-.3-2-.7-3-1c0-4.3,0-8.7,0-13c-9.8-2-8.1,6.5-8,14c-1-.3-2-.7-3-1c0-4,0-8,0-12c-3.2-1.6-3.5-2.2-7-1c-.8,4.7-1.1,9.2-1,14Zm89,0c-1-.3-2-.7-3-1c0-4,0-8,0-12c-4-2-4-2-8-1c0,4.7,0,9.3,0,14c-1.3-.3-2.6-.7-4-1c0-5.7,0-11.3,0-17c4.9,1,3.2,.4,7-1c9.9-3.6,8.1,14,8,19Zm54-18c4.9,1.6,3.6,.2,7.6-1c9.9-3,7.6,13.7,7.4,19c-1-.3-2-.7-3-1c0-4.3,0-8.7,0-13c-5-1-5-1-8,0c0,5,0,10,0,15c-1.3-.3-2.6-.7-4-1c0-6,0-12,0-18Zm139,18c-1-.3-2-.7-3-1c0-5.7,0-11.3,0-17c19,3.8,25.7-11,25,18c-1-.3-2-.7-3-1c0-4.3,0-8.7,0-13c-10.8-2.2-8.3,6.2-8,14c-1-.3-2-.7-3-1c0-4.3,0-8.7,0-13c-10.8-2.2-8.3,6.2-8,14Zm118,1c-1-.3-2-.7-3-1c0-6,0-12,0-18c5,1.7,3.3,.2,7-1c9.5-3.1,8.1,15.3,8,20c-1.3-.3-2.6-.7-4-1c0-4.7,0-9.3,0-14c-10.1-2-8.1,7.5-8,15Zm84-19c.2,8.3,3.6,24.6-7.3,26.9c-3.7,.8-5.4,0-7.7-2.9c.7-1,1.3-2,2-3c3.4,2.1,5.3,2,9,1c0-1.6,0-3.3,0-5c-11.8,2.7-16.8-10.8-8.1-16.9c4.8-3.4,7,1.6,12.1-.1Zm7,10c.3,1.3,.7,2.6,1,4c2.8,.6,5.2,1,8,1c0,1,0,2,0,3c-2.4,.6-4.8,1.1-7.2,.7c-4.3-.6-8-11-5.8-14.7c3.6-6,11-7.6,14.1-.3c1,2.5,1.1,4-.1,6.3c-3.3,0-6.6,0-10,0Zm17,8c-1-.3-2-.7-3-1c0-5.7,0-11.3,0-17c1.7,.3,3.3,.7,5,1c1.3-2.6,2.1-2.3,4.9-2.1c6.1,.5,4.2,14.8,4.1,19.1c-1-.3-2-.7-3-1c0-4.3,0-8.7,0-13c-10.8-2.2-8.3,6.2-8,14Zm45-4c-.3,1.3-.7,2.6-1,4c-8.9,1.7-17.7-3.4-13-14c4.7-10.7,15-3.7,15,6c-4,0-8,0-12,0c.3,1.3,.7,2.6,1,4c3.7,1,6.3,1,10,0Zm-484,5c-1.3-.3-2.6-.7-4-1c0-6,0-12,0-18c1.3,.3,2.6,.7,4,1c0,6,0,12,0,18Zm37-2c-15,2.6-15.7-5.7-10-17c4.4-.1,6.9-1.1,10,2c.3-.7,.7-1.3,1-2c.7,.3,1.3,.7,2,1c.4,11.8,4.6,29.8-14,25c-.3-1.3-.7-2.6-1-4c4.1,0,6.9,1.3,11,0c.3-1.6,.7-3.3,1-5Zm133-17c1,.3,2,.7,3,1c0,5.7,0,11.3,0,17c-4.8-1-5.3,.7-9.1,.8c-7.6,.1-6-13.3-5.9-18.8c1.3,.3,2.6,.7,4,1c0,4.3,0,8.7,0,13c10.8,2.2,8.3-6.2,8-14Zm35,19c-1.3-.3-2.6-.7-4-1c0-6,0-12,0-18c1.3,.3,2.6,.7,4,1c0,6,0,12,0,18Zm49.6-17.1c4.3,9.3-3,24.5-12.5,15c-8.8-8.8,1.1-23.6,12.5-15ZM693,1095c1.5-3.1,2.4-3.3,5.9-3.4c9.7-.2,7.1,11.8,7.1,18.4c-1.6-.3-3.3-.7-5-1c-.3,.7-.7,1.3-1,2c-.9,0-5.4,.3-6,0c-7.3-4.3,.2-12.7,8-12c-.3-1.3-.7-2.6-1-4c-2.7,0-5.3,0-8,0Zm297,15c-1-.3-2-.7-3-1c0-5.7,0-11.3,0-17c3.6,1.2,5.4,1,9,0c0,1,0,2,0,3c-7.8,1-6.2,9-6,15Zm38.9-16.5c11.1-8,20.3,7.7,13,14.5c-11.1,10.2-16.4-5.4-13-14.5Zm27.1-1.5c0,1,0,2,0,3c-1.3,.3-2.6,.7-4,1c-1.3,5-1.1,9.9-1,15c-1.3-.3-2.6-.7-4-1c0-6,0-12,0-18c3.5,.7,5.5,1.2,9,0Zm10,12c2.4-2.4,3.6-8.6,5-12c1,.3,2,.7,3,1c-2.3,6.8-5.9,28.5-15,25c1.3-2.7,2.4-1.4,4-3c4.1-3.9-4-18.2-4-23c5.1,1.7,5.4,7.2,7,12Z"/>
<path d="M562,202h-1c-1.9,1.9-3.8,3.4-6,5c-2.9,2.9-5.6,5.7-8,9l-2,3c-.3,2-.7,4-1,6c-.3,0-.7,0-1,0v12c1.2,2.3,2.2,4.5,3,7l2,3c2.6,2.6,4.9,4.9,8,7c10.7,2.6,16.5-.2,24,10c2.6,2.6,1.9,3.6,1,7c-1-.3-2-.7-3-1l-2-3c-2.1-2.3-4.1-3.7-7-5c-5-5-18,1.8-19,11c-1.7,.3-3.3,.7-5,1c-1.9-5.6,.3-8.8,4-13c.7-.7,1.3-1.3,2-2c-3-2-3-2-5-4c-4.6-4.4-8.1-7.5-9-14l-1-3c-1.4-2.9-1.1-5.9-1-9c-10.1-3.6-19,4.4-27,9l-4,4c-1.1,2.9-1.8,4.8-4,7l-1,4c-1.6,11.2,.5,25.3,13.1,29.4c8.4,2.7,9.8,.1,16.9,7.6c.3,1.3,.7,2.7,1,4c-1.3,.7-2.7,1.3-4,2c-2-2-2-2-3-4c-13.8-4.6-18.6,6.9-18.1,19.1c.2,3.2,2.7,2.2,1.1,6.9c-6.7-.4-8.1-15.7-5.8-20.9c1.2-2.7,4.5-7.1,6.8-9.1c-9.4-3.3-13.9-17.2-16.9-17.9c-3.7-.8-10.1,3.9-12.7,6.5c-1.9,1.9-3.7,2-5.4,3.4c-.4,.3-.6,2.4-1,3c-5.6,8.6-11,20.1-8,31c.8,2.8,2.4,5,3,8c-19.2,6.4-23.2,38.6-15.5,54.4c2.9,6.1,7.1,8.9,11.5,13.6c-1.5,4.5-3.6,8-4.1,12.9c-1.4,15.6,9.7,34.7,25.8,37.9c7.2,1.5,15.5-2.4,20.3-.8c0,2,0,4,0,6c-7.2,1.2-11.3,3.3-19,3c3.8,22.6,25.5,40.4,48.3,40.5c5.1,0,9.4,.4,13.7-2.5c-.3-3-.7-6-1-9c1.3-.7,2.7-1.3,4-2c3.6,3.6,2.6,9.5,5.7,14c1.9,2.7,4.4,6.4,6.9,8.5c6.1,4.8,14.2,5.9,20.4,11.6c2.2,2,3.9,4.9,7,4.9c2.2-10.1,11.9-15.7,16.6-24.6c5.1-9.7,5.2-19.7,8.4-29.4c0-14.3,.9-143.1-1-145c-.7,.7-1.3,1.3-2,2l-1,2c-1,1-2,2-3,3l-2,1c-4.4,4.4-14,6.3-20,6c-11.7,3.9-11.6,11.5-14,22c-1.3-.3-2.7-.7-4-1c-.4-10.5,1.3-15.7,9-23c-2.4-1.6-4.7-3.3-7-5c-5.3-3.6-9.3-10.6-10-17c-1.7-5.1-.1-6.7,5-5c0,1.7,0,3.3,0,5c4.4,9.2,8.8,13.7,19,16c5.7,.2,10.6,.3,16-2l3-2l3-3l4-5c1.7-2.6,2.4-4,3-7c0-1.1,0-1.1,2-5v-4c.2-13.9-.7-22.5-7-35c-4.4-4.4-6.1-7.7-12-12c-2.9-.6-5.4-1.6-8-3c-.3,0-.7,0-1,0c.3-1.3,.7-2.7,1-4c1.7,.3,3.3,.7,5,1c5.9,1.9,5.9,1.9,7,3l4,3c6.6,5.1,6.6,5.1,8,9c1,1,2,2,3,3c0-11,0-22,0-33c-1.5-2.9-2.8-5.9-4-9c-2.6-2.6-4.5-7-7-10c-1.8,0-3.7-2.7-5-4c-12.6-7-23.9-5.6-37-1Zm6,248c-4.6-2.3-10.8-.4-16-2c-5.7,.3-12.1-3.6-16-8c-1.4,6.4-3.8,13-11,14c-.4-.8-1.3-3.1-1-4c.4-1.3,3.7-3.6,4.6-4.9c4.7-7,3.1-17.1-.6-24.1c-1-1.9-6.2-8.2-8-9c-1.6-.7-5.7,.3-7.5,.2c-6-.2-16.4-8.5-18.5-14.2c-.5-1.5-.8-3.4-1-5c1.3-.3,2.7-.7,4-1c1.6,4.5,3.5,6.1,7.1,9.1c19.8,17.1,41.1-10.5,28.9-30.1c-8.8-14.1-30.2-19.8-44.5-12.6c-3.3,1.7-5.7,6.5-8.9,7.4c-2.4,.8-3-.2-4.6-1.8c4.3-12.9,23.2-18.2,35.3-15.9c2.5,.4,7.2,3.7,9.7,2.9c1.6-.5,.7-10.1,1-12c1.3-7.7,5.8-13.6,12-18c.3,.3,1.9,1.7,2,2c0,.1-8.7,17.5-8.3,24.3c.7,11,7.3,12.5,12.4,20.4c2.8,4.4,3.7,9.4,4.9,14.3c11.8-4.3,43-5.3,44,13c-1.3,.3-2.7,.7-4,1c-7.2-10.8-19.4-12.8-31-9c-2.8,.9-5.8,0-8.2,2.3c-2.1,1.9-2.4,6.6-3.5,9.3c-1.9,4.4-9.1,9.4-13.3,11.4c13.5,18.1,7,32.5,36,32c-.3-9.1,2.8-18.6,13-20c0,5.1-4.1,5.6-6,9.7c-1.8,4-1.1,9.1-1,13.3c10.9,5,14.4,13.6,14,25c-1.7-.3-3.3-.7-5-1c.4-9.6-3.9-13.2-11-19Z"/>
<path d="M719,222c11.3,3.8,17.8-9.2,7.3-14.6c-8.5-4.4-14,8.1-7.3,14.6Z"/>
<path d="M823,331c.2,9.5,9.6,16.3,14,7c4.5-9.5-7.6-15.7-14-7Z"/>
<path d="M394,342c3.5-9.5-7.7-20.2-14.4-11.9c-7.7,9.5,4.6,20,14.4,11.9Z"/>
<path d="M348,396c-10.5-10.5-22.2-.8-13.3,10.5c6,7.7,14.3-3.1,13.3-10.5Z"/>
<path d="M365,457c5.2,12.9,23.3,1.9,14.6-8.7c-1.2-1.3-2.9-3.2-4.6-3.5c-4.7-.6-8.5,1.8-10,6.2v6Z"/>
<path d="M428,505c1.6,3.2,1.9,5.9,5.6,7.3c18.3,6.8,10.8-25.8-1.5-15.6c-2.2,1.8-3.2,3.7-4.1,6.3v2Z"/>
<path d="M640,513c-2.3-1.1-2.3-1.1-9-1c-2.2,2.1-5,3.9-5,7c.5,4.3,.5,6.3,4,9c2.8,.6,5.2,1,8,1c4.1-4.1,5.6-4.8,5-11c0-1.1,0-1.1-3-5Z"/>
<path d="M555,560c1.5-10-8.8-19.8-15.3-9.1c-5.1,8.3,7.6,18.7,15.3,9.1Z"/>
<path d="M709,559c4.7-4.7-1.4-9.5-5-12c-4.7-.3-6.4-.3-10,3c-2.3,9.1,.3,13.7,10,13c1.8,0,3.7-2.7,5-4Z"/>
<path d="M500,611c-12.5-1.6-15.4,13.4-6.1,15.9c10.5,2.8,14.7-10,6.1-15.9Z"/>
<path d="M774,614c-2-1-2-1-4-3c-5.6-.2-5.6-.2-9,2l-2,3c1.3,17,19.1,13.9,15-2Z"/>
<path d="M1016,870c-6.2-4.1-11.6-5.1-19-5c-6.6,.8-10.4,2.6-16,6c-2.3,2.4-4.5,4.9-5.2,8.3c-1.4,6.5-.3,15-.2,21.8c.1,15.9,.2,31.9,.4,47.9c4.2,19.7,30.3,21.7,43,9c1.6-2.2,3.1-4.1,5-6c0-2.8,5.7-12.5,6.6-17c4.3-21.2,2.1-36.2-5.6-56l-1-1c0-1.8-6.3-6.3-8-8Z"/>
<path d="M893,908h-3c-3.1,1.8-4.2,2-8,2c-25,2.8-34.9,44.3-7.3,49.3c4.9,.9,10,.8,14.4-1.8c3.8-2.1,7.8-7.4,10.9-10.5c0-13,0-26,0-39c-2.3,0-4.7,0-7,0Z"/>
<path d="M774,1097c0,.7,0,1.3,0,2c2,0,4,0,6,0c.3-1,.7-2,1-3c-1.3-.7-2.7-1.3-4-2c-1,1-2,2-3,3Z"/>
<path d="M954,1107c13.9,0,2.3-21.8-2-9c-.1,3.8-.8,6.2,2,9Z"/>
<path d="M255,1095c-7.8-.2-8.8,8.3-6,11c6.6,6.1,9.1-4.2,6-11Z"/>
<path d="M391,1097c0,3.3,.3,5.8,1,9c8.9,2.6,11.3-6.3,5-11c-4.9,.9-4.9,.9-6,2Z"/>
<path d="M441,1106c9.5,2.5,8.7-8.4,5-11c-8-5.5-5.6,8.2-5,11Z"/>
<path d="M510,1106c8.9,2.6,11.3-6.3,5-11c-4.9,.9-4.9,.9-6,2v1c0,2.4-.7,6.3,1,8Z"/>
<path d="M663,1095c-1.7,0-4.5-.4-6,.2c-2,.8-2.3,9.3-1,10.8c2.6,3,8.1-.2,8-3.8c-.1-2.4-.5-4.8-1-7.2Z"/>
<path d="M683,1106c4.5-17.4-14.3-11.5-6,1c1.1,0,1.1,0,6-1Z"/>
<path d="M817,1107c1.7-.3,3.4-.7,5-1c1-3.7,1-6.3,0-10c-8.8-2.3-8.8,4.9-5,11Z"/>
<path d="M842,1099c-.7-1.4-1.3-2.7-2-4c-1.7,0-3.3,0-5,0c-.3,1.4-.7,2.7-1,4c2.7,0,5.4,0,8,0Z"/>
<path d="M973,1107c1.1,0,1.1,0,6-1c1-4.4,1-6.9-1-11c-2,0-4,0-6,0c-.3,1-.7,2-1,3c-.1,3.8-.8,6.2,2,9Z"/>
<path d="M1032,1106c8.7,3.1,10.9-7.6,6-11c-8-5.6-6.4,8.4-6,11Z"/>
<path d="M301,1102c-1.7,0-3.3,0-5,0c-1,2-1,2-1,5c1.7,0,3.4,0,5,0c.3-1.7,.7-3.3,1-5Z"/>
<path d="M374,1107c1.3,0,2.7,0,4,0c.3-1.3,.7-2.7,1-4c-.7-.3-1.3-.7-2-1c-1.3,.7-2.7,1.3-4,2c.3,1,.7,2,1,3Z"/>
<path d="M696,1107c1.7,0,3.4,0,5,0c.3-1.4,.7-2.7,1-4c-4.2-1.4-6-.9-6,4Z"/>
<path d="M940,1102c-1.7,0-3.3,0-5,0c-1,2-1,2-1,5c1.7,0,3.4,0,5,0c.3-1.7,.7-3.3,1-5Z"/>
<path d="M1009,1106c-.3-1.3-.7-2.7-1-4c-1.7,.3-3.3,.7-5,1c0,1.3,0,2.7,0,4c1.1,0,1.1,0,6-1Z"/>
</g>
<g fill="#9A6DCC">
<path d="M883,608c2.4,0,14.5-11.7,17.3-14.2c38.3-34.5,76.6-71.5,107.7-112.8c16.9-22.4,31.8-45.9,49-68c-5.3-5.3-9.4-14.7-14-21c-15.8-21.8-32.7-43.3-50.5-63.6c-4.2-4.8-8-11-12.5-15.4c-5.2-5.2-21.7-19.9-25-25c-2-3.1-5-7.9-8-10c-7.1-5.1-12.2-11.8-18.8-17.5c-23.2-20.4-47.8-40.3-73-58.1c-16.4-11.6-34.7-19.8-52.2-29.4c-6-3.3-14.5-8.9-20.6-11.1c-20.1-7.1-41.7-16.1-62.4-20.6c-6.8-1.5-15.5-1.6-22-3.3c-2.1-.6-3.8-2-6.1-2.4c-13.2-2.1-27-1.6-39.9-3.6c-26.1-4-74.5,.1-100,7c1.3,.3,2.7,.7,4,1c-2,0-4,0-6,0c5.9,1.8,16.1,1.7,22,0c-4.1,4.1-12.2,1.1-18,4c4.7,1.7,8.7-1.2,14-1c-3,.6-5.2,1.6-8,3c0,5,0,10,0,15c1.7,0,3.3,0,5,0c0,.7,0,1.3,0,2c2.2,0,3,0,5,1c24.3-2.5,48.2-6.7,72.8-5.1c14.5,1,27.9,4.6,41.9,7c82.8,14.4,150.5,63.8,209,122.6C911,305.9,930,324.9,944,345c7.2,10.3,50.6,61.2,49,70c-1.2,6.7-22.8,41.4-28,48c-12.6,15.8-23.1,35.1-36,51.6c-25.5,32.8-53.8,61.2-83,90.4c.3,.7,.7,1.3,1,2c4.7,0,7.1,2.4,12,1c.7,.7,1.3,1.3,2,2c.3-.3,.7-.7,1-1c1.7,5,3,7.5,3,13c2.7,0,10-6.9,12-9c-.3-1.3-.7-2.7-1-4c1,0,2,0,3,0c.3-1,.7-2,1-3c1,.7,2,1.3,3,2Zm-17-18c1.3-1.3,4-3.2,4-5c1,.7,2,1.3,3,2c-2,2-4.1,3-7,3Z"/>
<path d="M837,438c.3,0,.7,0,1,0c4.5-22.5,5.3-44.5,2.4-67.2c-.9-7.3-4.3-16-4.5-22.9c-.2-5.7,7.5-6.6,5.9-15.6c-1.3-7.4-6.6-10.8-13.8-10.3c-1-5.8-5.7-11.6-8-17c-14.5-34.8-48-74-84-88c1.2-25.4-34.3-14.5-23.7,5c1.6,3.1,5.3,6.1,8.7,6.4c7.2,.6,9.1-3.4,15-5.4c2.7,2.7,5.4,2.2,8,4c5.4,3.8,11.3,7.3,16.6,11.3c19.3,14.2,36.3,34.4,48.1,55.1c3.1,5.5,11.6,20.7,12.8,26.1c1.1,4.7-.9,5.1-2.5,8.5c-4,8.4,2.9,17.1,11,18c.9,7.5,4.2,14.4,5,22c2.3,21.9,1,42.3-2,64c1.3,2,2.7,4,4,6ZM719,222c-6.7-6.5-1.2-19,7.3-14.6c10.5,5.4,4,18.4-7.3,14.6ZM823,331c6.4-8.7,18.5-2.5,14,7c-4.4,9.3-13.8,2.5-14-7Z"/>
<path d="M623,223c-2.9-5.8-4.2-13.2-9-18c-.7,1.3-1.3,2.7-2,4c5.1,2.6,5.5,8.3,8,13c.3-1,.7-2,1-3c.3,1.3,.7,2.7,1,4c.3,0,.7,0,1,0Z"/>
<path d="M523,292c1,2,1,2,3,4c1.3-.7,2.7-1.3,4-2c-.3-1.3-.7-2.7-1-4c-.3,1-.7,2-1,3c-3,0-3,0-5-1Z"/>
<path d="M652,298c0-2.2-.4-3.9-1-6c0,1.7,0,3.3,0,5c-1.3-.3-2.7-.7-4-1v21c.3,0,.7,0,1,0c-.3-6.4-2.5-15.8,4-19Z"/>
<path d="M701,370c10.4-7.3,14.1-12.5,28-12c-1-4-2-7-5-10c4.5-4.5,10.9-4.8,17-6c1.5-4.6,1.5-4.6-2-13c-17.9,0-14.8,7.6-25,11c0-6.6,8.6-13.5,7.9-20.3c-.2-2.4-3.2-4.5-5.3-5.2c-2.2-.8-3.4-.5-4.8,1.4c-.7,1-9.2,22-9.8,24.1c-2.1-9.6-4.1-17.9-5-28c-4.6-1.5-10.2,.4-15,1c-3,12.1,3.4,26.6,3,39c.7,1.3,1.3,2.7,2,4c-1.3,.7-2.7,1.3-4,2c1.7-.3,3.3-.7,5-1c-.7,.7-1.3,1.3-2,2c1.9,1.9,7.4,1,10,1c1.7,3.4,3.8,6.5,5,10Z"/>
<path d="M719,402c4.3-8.5,6.9-22.3,18.8-23.8c6.3-.7,12.3-.9,18.2-3.2c.1-5.2-.2-9.9-1-15c-6.9-2.3-38.9,1.9-44,7c0,2.6,.3,4.5,1,7c-2.4,0-2.3,.3-4,2c0-1.3,0-2.7,0-4c-.7,0-1.3,0-2,0c0-.3,0-.7,0-1c-13.8,13.8-.7,21.4-28,21c0,.3,0,.7,0,1c4.7,0,9.3,0,14,0c0,.3,0,.7,0,1c3.5-1.7,5-4,9-4c0-.7,0-1.3,0-2c1.3-.7,2.7-1.3,4-2c-.3,1.3-.7,2.7-1,4c1.3-1,2.7-2,4-3c3,1.5,3.3,5.9,5,9c.3-1.3,.7-2.7,1-4c0,2.2,0,3,1,5c.7-1,1.3-2,2-3c2,6,2,6,2,8Z"/>
<path d="M743,403c0,.7,0,1.3,0,2c-2.6-3.9-2.6-6.5-3-11c2.8,0,5.2,.4,8,1c-.7,.7-1.3,1.3-2,2c13.2,.4,14.2-.4,14-14c-5.9-2.9-9.9-1.8-16-1c-16.7,2.2-21.3,14-21,30c.3,0,.7,0,1,0c0-3.3,0-6.7,0-10c1.4,5.6,3.3,10.3,4,16c-.3,0-.7,0-1,0c.7,1.3,1.3,2.7,2,4c.3,0,.7,0,1,0c1.6-1.6,3.9-.5,6,0c0-1.9-.4-2.6,1-4c-1-.3-2-.7-3-1c7-.3,13-1,12,8c-1.7,0-3.3,0-5,0c2.6,2.6,4.9,5.1,7,8c6.9-7.9,2.2-23.5-5-30Z"/>
<path d="M723,420c-.7-1.7-1.3-3.3-2-5c-1,2-2,4-3,6c.3,0,.7,0,1,0c.3,.7,.7,1.3,1,2c1-1,2-2,3-3Z"/>
<path d="M835,448c-.3,0-.7,0-1,0c.1-4.8-.2-9.3-1-14c-3.7,14.3-8.7,26.4-14,40c1.4,1.4,1,2.1,1,4c1.3-2.7,2.7-5.3,4-8c.3,1,.7,2,1,3c4.2-4.2,9-18.8,10-25Z"/>
<path d="M632,535c0-.3,0-.7,0-1c-1-.3-2-.7-3-1c4.3,4.3,2,101,2,115c.3,0,.7,0,1,0c0-9.2-1.2-80.8,1-83c.7,1,1.3,2,2,3c.3-1,.7-2,1-3V538c-1.3,.7-2.7,1.3-4,2c0-1.7,0-3.3,0-5Z"/>
<path d="M704,547c0-.3,0-.7,0-1c-2,0-4,0-6,0c1.3-.7,2.7-1.3,4-2c-1-.7-2-1.3-3-2c-6,.3-9.2,4.6-11,10c1,0,2,0,3,0c.3-.7,.7-1.3,1-2c.7,0,1.3,0,2,0c3.6-3.3,5.3-3.3,10-3Z"/>
<path d="M470,1110c0,.3,0,.7,0,1c4.5-.1,8,1.2,12,0c0-1,0-2,0-3c-.3,.7-.7,1.3-1,2c-4.1-1.3-6.9,0-11,0Z"/>
</g>
<g fill="#5F3B8F">
<path d="M570,164c-2-1-2.8-1-5-1c0-.7,0-1.3,0-2c-1.7,0-3.3,0-5,0c0-5,0-10,0-15c2.8-1.4,5-2.4,8-3c-5.3-.2-9.3,2.7-14,1c5.8-2.9,13.9,.1,18-4c-5.9,1.7-16.1,1.8-22,0c2,0,4,0,6,0c-1.3-.3-2.7-.7-4-1l-6,1c1,.7,2,1.3,3,2c-1.3,.3-2.7,.7-4,1c1.3,.3,2.7,.7,4,1c-5.1-.1-9.8,1.1-15,1c.7-.7,1.3-1.3,2-2c-1.3,0-2.7,0-4,0h-2c-1,3-1,3-3,5c.3,.3,.7,.7,1,1c-3.9,2.6-7.5,2.2-12,2c.3-1,.7-2,1-3c-.3-.3-.7-.7-1-1l-4,1c0,1,0,2,0,3c-1.3,.3-2.7,.7-4,1c-.3-.7-.7-1.3-1-2c-.3,0-.7,0-1,0c-9.7,.9-33.2,10.5-43.2,14.7c-5.6,2.4-11.8,7.2-17.8,8.3c0,.3,0,.7,0,1c2.1,2.1,2.1,2,5,2c.3-.7,.7-1.3,1-2c1.7,0,3.3,0,5,0c-2.5,2.5-5.1,2.5-8,4c0,8.1-1.9,24.1,4,30c4.6-1.5,12.2-5.9,16-9c-1.7,.3-3.3,.7-5,1c0-1,0-2,0-3c4.8-1.6,5.3-5.5,9,0c13-4.7,26.3-14.8,40-17c0-.3,0-.7,0-1c1-.3,2-.7,3-1c-1-1-1-1-2-3c4.3-1.4,7.7-.6,12,0c14.2-4.7,30.1-8.6,45-11Z"/>
<path d="M419,187c3.1,.9,5.8,1.1,9,1c-1-.3-2-.7-3-1c.3-1.3,.7-2.7,1-4c-2.9,1.1-4.8,1.8-7,4Z"/>
<path d="M668,204c0-3.4,4.5-10.8,7-13c-5.4,0-6.3,1-8,6c-.3,2.3-.7,4.7-1,7c.7,0,1.3,0,2,0Z"/>
<path d="M692,394c0-.3,0-.7,0-1c-4.7,0-9.3,0-14,0c-8,1.9-15.5,11.5-18,19c.3,1.3,.7,2.7,1,4c1-3,1-3,1-6c.7,0,1.3,0,2,0c1-3,1.3-3.2,4-5c0,5.9-3.5,8.4-6,13c-1.1,2-.2,5.9-2,9c0-2,0-4,0-6c-3.2,3.2-2.2,6.8-2,11c1.2,12.3,6.7,21.4,12,32c5,0,10,6,6,10c3.3,5.7,7.2,11.5,12,16c2.4,0,2.3,.3,4,2c.3-.3,.7-.7,1-1c2,3.8,2,3.8,2,6c7.5,0,11.3,8.7,21,6c0-1,0-2,0-3c1-.3,2-.7,3-1c.3,.3,.7,.7,1,1c1.3-1,2.7-2,4-3c0,.3,0,.7,0,1c5.8,0,18-28.1,19-34c0-1,0-1-1-2c-1.9,3.2-2.5,6.4-3,10c-3,0-5-1-8-1c-1.5-4.4-2.7-7.3-4-12c-.3,.3-.7,.7-1,1c-1-1-2-2-3-3c0,.7,0,1.3,0,2c-.7,0-1.3,0-2,0c.1-4.7,.4-9.4-1-14c-.3,.3-.7,.7-1,1c-.2,10.5,5.4,18.2,5,25c-.7,0-1.3,0-2,0c-1.3-2.7-2.7-5.3-4-8c-3.4,3.4-6.3,16.1-7,21c-1,.3-2,.7-3,1c-1.4-4.1,.3-4.1,1.1-7.8c3.9-17.5,9.8-25.4,.9-43.2c-6.1,6.1-13.1,33.6-16,35c-2.2-6.2,3-16.7,5-23c-.3-.3-.7-.7-1-1c-.3,1-.7,2-1,3c-1,0-2,0-3,0c.7-.7,1.3-1.3,2-2c-1.7,.3-3.3,.7-5,1c-.3,1-.7,2-1,3c-.7-1.3-1.3-2.7-2-4c1-.3,2-.7,3-1c0-1,0-2,0-3c-1,.7-2,1.3-3,2c-.7-.7-1.3-1.3-2-2c6.9-6.9,15.7-4.8,22-12c-.8-2.5-1.8-4.7-3-7c-3.1,3.1-2.1,5.8-2,10c-7.7,3-7.6,1.2-14-2c0-5.1-.4-9.9-1-15c-15.4,.2-17.1,.6-14-15c2-.7,4-1.3,6-2c-1-.7-2-1.3-3-2c2.5-.4,5.2-.2,7-2c-1.3-.3-2.7-.7-4-1c4,0,8,0,12,0Z"/>
<path d="M791,412c-.7,.7-1.3,1.3-2,2c.1-4.9-.8-9.3-2-14c0,3,0,6,0,9c-.5-1.9-.6-3.6-2-5c0,4.7,0,9.3,0,14c-.3,0-.7,0-1,0c.1,6-2,11.2-2,17c.7,1.3,1.3,2.7,2,4c.3-.7,.7-1.3,1-2c.3,.3,.7,.7,1,1c2.2-9.4,6-19.8,11-28c-1.6,0-1.9-.9-3-2c-2,2-2,2-3,4Z"/>
<path d="M785,445c-1-1-1.8-1.4-3-2c0-2.3,0-4.7,0-7c-1.6,6.2-4.1,12.7-5,19c1,.7,2,1.3,3,2c.3-.3,.7-.7,1-1c0,.7,0,1.3,0,2c2.3-4.5,3.4-7.9,4-13Z"/>
<path d="M745,454c0-4.7,0-9.3,0-14c-.7,0-1.3,0-2,0c.1,5.3,.6,10.9-1,16c1.1-1.1,1.4-2,3-2Z"/>
<path d="M886,446c0-2,0-2,1-5c-3,1-3,1-4,3c0,1.7,0,3.3,0,5l3-3Z"/>
<path d="M875,454c-.7,1-1.3,2-2,3c-1.1-1.1-1.1-1.1-2-5l-3,1c.1,5.8,.8,12.4-1,18l4,2c2.5-2.5,3.8-9.5,5-13c-1-3-1-3-1-6Z"/>
<path d="M870,478c-2.1-2.1-2.4-3.1-3-6c-13.3,24.7-14.6,28.2-43,34c-7.1,1.4-15.9,4-23,4c1.3-1.3,2.7-2.7,4-4c0-4.1,2.6-4.3,1-9c1,.3,2,.7,3,1c0,1,0,2,0,3c2.3-2.7,3.9-4.6,5-8c0-1,0-2,0-3c-.7,0-1.3,0-2,0c-.8,2.4-1.2,3.2-3,5c-.7-.3-1.3-.7-2-1l-1,3c-5.9,4.7-9,10.3-15,15c-11.9,9.3-25,15-36,26c.3,.3,.7,.7,1,1c-1.8,3-2.2,4.6-1,8c18.2-18.2,42-35.3,69-30c-.3-.7-.7-1.3-1-2c3,0,3,0,6-1c-.7-.7-1.3-1.3-2-2c6.3-.7,11.6-3.2,18-3c-1.3-.7-2.7-1.3-4-2c3.5,.1,6.7,0,10-1c.3,1.3,.7,2.7,1,4c-.3,0-.7,0-1,0c5.4,2.6,8.9,5.3,15,6c2.7-.7,5.3-1.3,8-2c.3,.7,.7,1.3,1,2c.3-1,.7-2,1-3c-10.7,.4-17.8-4.2-27-9c7.5-4.1,12.2-10.4,18.8-15.2c4.7-3.4,11-5.1,16.2-7.8c0-.3,0-.7,0-1c-2,0-4,0-6,0c-2.7,0-6.9,2.5-10,3c.7-1.7,1.3-3.3,2-5Z"/>
<path d="M428,503c-1,0-2,0-3,0c-.3-1-.7-2-1-3c-.9,3.1-1.1,5.8-1,9c.3,0,.7,0,1,0c0-1.3,0-2.7,0-4c.7,.7,1.3,1.3,2,2c.7-.7,1.3-1.3,2-2v-2Z"/>
<path d="M739,548c2.5-7.6,2.6-16,4.4-23.8c1.5-6.1,4.8-11.6,7.6-17.2c-.3-1.3-.7-2.7-1-4c-4.5,4.5-4.9,10.9-9,15c0-1,0-2,0-3c-5.4,9.7-8,25.9-8,37c1-2,1.5-3.8,2-6c.5,2.9,.2,4.6,3,6c-.1-3.2,.1-5.9,1-9c0,1.7,0,3.3,0,5Z"/>
<path d="M647,526c2.9-2.9,.7-12.3-2-15c-2-.3-4-.7-6-1c.7,.7,1.3,1.3,2,2c-.3,.3-.7,.7-1,1c3,3.9,3,3.9,3,5c.7,3.5,2.5,5,4,8Z"/>
<path d="M638,529c-2.8,0-5.2-.4-8-1c0,1,0,2,0,3c-1,.3-2,.7-3,1l2,1c1,.3,2,.7,3,1c0,.3,0,.7,0,1c.7-1,1.3-2,2-3c2,2,2,2,2,6v27c0,19.3,0,38.7,0,58c-1,.3-2,.7-3,1c0-19.7,0-39.3,0-59c-2.2,2.2-1,73.8-1,83c-.3,0-.7,0-1,0c0,20-3.3,59.2,1,77c1.7,0,3.3,0,5,0c-.1-42.2-.1-84.5-.2-126.7c0-19.9-1.6-41.1,0-60.9c.1-1.8,.9-3.1,2.2-4.4c0-3,0-3-1-4Z"/>
<path d="M754,549c-.7-.7-1.3-1.3-2-2c-.7,.7-1.3,1.3-2,2c-.3-1-.7-2-1-3c-3.3,3.3-7.5,9.5-9,14c-.3,.7-.7,1.3-1,2c-4.5,0-4.8,5.6-7,10c.7,2.7,1.3,5.3,2,8c-.7-1-1.3-2-2-3c-.3,2-.7,4-1,6c.7-.7,1.3-1.3,2-2c.6,1.2,1,2,2,3c.3,0,.7,0,1,0c2.1-5.8,5.1-10.3,9-15c-4.9-4.9,4.2-6.6,7-8c.7,.7,1.3,1.3,2,2c17.5-6.8,27.6-11.4,43.7,1.9c3.1,2.6,3.6,5.6,7.3,8.1l2-3c-4.1-5-8.5-8.5-13-13c6.8,.1,14,.6,20-3c-1.6,0-1.9-.9-3-2c-8,4-23.8-2.2-32.9-2.1c-12.9,.1-19.7,5-31.1,9.1c2.3-3.4,4.9-6.4,7-10Z"/>
<path d="M658,631c-.6-3.3-1.5-4.8-4-7c-.6,4-1.6,4-3,7c-1.8,3.7-.3,74.1-.3,84.1c.1,5.4,0,9,6.3,6.9c0-20.9-.1-41.8-.1-62.6c0-8.5-1.5-20.5,1.1-28.4Z"/>
<path d="M740,644c-6.1-4.3-29.9-.8-38-1c0,.7,0,1.3,0,2c12.5,.1,25.7,1,38-1Z"/>
<path d="M807,661c0-.3,0-.7,0-1c-13.5,0-16.1,11.3-31,9c.3,1.3,.7,2.7,1,4c-2.9,1.1-4.8,1.8-7,4c-1-1-1-1.1-2.4-1c-3.4,.5-5.1,5.2-7.6,6c-2.8,.9-9.9-1.4-13-2c0-.7,0-1.3,0-2c5.6-2.2,3.6-6,10-8c.7,.7,1.3,1.3,2,2c6.5-6.5,12.7-6.6,19.8-11.1c3.2-2.1,5.1-6,8.2-7.9c4.3-2.7,6.9-2.4,8-8c-7.5,2.5-16.1,9.7-22.8,14.1c-17.5,11.3-40.4,22.4-61.2,25.9c-.3,3-.7,6-1,9c19.1,9.5,78-24.2,97-33Z"/>
<path d="M687,654c0-.3,0-.7,0-1c-2-1-2-1-5-2c-13.9,13.9-9.1,46.6-9,65c1.7,.3,3.3,.7,5,1c6-22.9-6.7-41.6,9-63Z"/>
<path d="M591,670c-.6-3.3-1.4-6-3-9c-.3,.7-.7,1.3-1,2c-.7-.7-1.3-1.3-2-2c-.7,.7-1.3,1.3-2,2c3.3,17.1,2.1,34.6,2,52c.3,0,.7,0,1,0c-.1-13.8-2.3-31.8,1-45c0,3.3,0,6.7,0,10c1.1-4.4,1.6-8.5,2-13c.7,1,1.3,2,2,3Z"/>
<path d="M610,781c-4.9-1.5-9.5-1.8-14,1c3.2,0,6.1,2.2,10,2c-2.4-.8-2.8-.6-4-3c2.7,0,5.3,0,8,0Z"/>
<path d="M707,974c24.2,0,48.3,.1,72.5,.1c10.2,0,23.7,1.7,33.5-1.1c2-14.6,6-28.3,8-43c-1-.3-2-.7-3-1c-8.7,13.1-12.2,25-28,31c-8.6,3.2-37.9,5.1-44.7-2.2c-3.4-3.5-3-131,1.5-139.8c3.9-7.5,11.9-11.5,20.2-11c.3-1,.7-2,1-3c-23.3,0-46.7,0-70,0c-.3,.7-.7,1.3-1,2c4.7,1,15.2,5,18,9c1.2,1.7,3.1,7.3,3.3,9.5c1.5,24.2-.1,49.5,0,73.8c0,16.6,2,35.9-.2,52.2c-.6,4.7-4.6,10.4-7.1,14.5c1.3,.3,2.7,.7,4,1c-2.6,2.6-4.5,2.2-8,2c-1,2-1,2-3,3c0,.7,0,1.3,0,2c1,.3,2,.7,3,1Z"/>
<path d="M976,949c-.3,0-.7,0-1,0c0-12.9,2.8-77.2-4-84c-.3,1.3-.7,2.7-1,4c0-1.7,0-3.3,0-5c-1-.3-2-.7-3-1c0-4.3,0-8.7,0-13c-.7-.3-1.3-.7-2-1c-.8,5.2-3.1,3.3-5,7c-.7-2.7-1.3-5.3-2-8c-.7,2.7-1.3,5.3-2,8c.1-13.7,.9-27.5-2-41c-1.3,.3-2.7,.7-4,1c2.5,2.5,3.6,5.6,4,9.1c2,15.2,.2,32.9,.2,48.3c-.1,33.5-.1,67.1-.2,100.6c5.4-1.8,11.6-7,17.5-6.9c4.4,.1,7.5,3.5,11.9,4.7c16.6,4.4,39.3,3.7,51.6-9.8c-1.1-2.2-1.1-2.2-3-7c1-.3,2-.7,3-1c0,2.3,0,2.3,2,6c.3,0,.7,0,1,0c1.8-4.5,5.5-6.5,7.7-10.6c9.5-18.1,12.1-32.8,9.3-53.4c-4.2-4.2-4.2-6.2-4-12c-1.1-2.2-1.1-2.2-3-7c-.7,.7-1.3,1.3-2,2c-.7-.7-1.3-1.3-2-2c-1.2,1.2-1.3,1-3,1c1.3,5.5,3.5,19,1,24c-1.7,0-1.8,.2-3-1c-.3,1-.7,2-1,3c-.4-7.3,6.8-10.2,1-16c-.4,4.4-.2,9-6,9c1.1-4.2,.7-7.8,0-12c-4.1-1.4-3.6-4.2-8-6c7.7,19.8,9.9,34.8,5.6,56c-.9,4.5-6.6,14.2-6.6,17c0,3.1-.5,4.4-2,7c-1-.3-2-.7-3-1c-12.7,12.7-38.8,10.7-43-9Zm74-40c-1.6-6.6-4.6-10-3-17c1,.3,2,.7,3,1c0,5.3,0,10.7,0,16Z"/>
<path d="M886,861c.7-.7,1.3-1.3,2-2c-1.7,.3-3.3,.7-5,1c.7-.7,1.3-1.3,2-2c-2,0-4,0-6,0c0-3,0-3,1-5c4.1,.1,8,.3,12-1c-13.4-.2-25.4-.5-37,7c-5.9,3.8-21.8,23.9-10,28.2c2.2,.8,5.1,1.2,7.3,0c10.5-5.7-5.2-26.8,33.7-26.2Z"/>
<path d="M997,865c1.3-.7,2.7-1.3,4-2c0-1,0-2,0-3c-.3,.7-.7,1.3-1,2c-2.5-.7-4.4-1-7-1c-.3-.7-.7-1.3-1-2c2.4-.8,2.8-.6,4-3c3.6,.2,5.9-.1,9-2c-1.7-.3-3.3-.7-5-1c-8.6,.7-8.6,.7-12,4c-2,3.9-4.6,6.4-9,7l-1,1c1,3.1,.9,3,4,4c-.3,.7-.7,1.3-1,2c5.6-3.4,9.4-5.2,16-6Z"/>
<path d="M917,866c-1.8-3.6-3.1-5.7-7-7c1.5,4.4,4.6,5.3,3,10c-.3-.3-.7-.7-1-1c-3.8,1.9-5.4,1.1-8,5c-5.1-6.2-4-9.3-13-10c0,.3,0,.7,0,1c12.4,9.8,10.1,22.7,10,37c-5.5-.1-15.2-1.4-20,1c-1,.7-2,1.3-3,2c3.6,1.2,8.9,4,12,4h3c2.4-.6,4.7-1.2,7-2c-.7-.7-1.3-1.3-2-2c4,0,6-2,9,1c.7-.7,1.3-1.3,2-2c1.7,1.7,1,4.8,1,7c.7,.3,1.3,.7,2,1c-2.8,2.8-2.1,5.2-2,9c-2,0-4,0-6,0c0-2.7,0-5.3,0-8c-1,0-2,0-3,0c0,11.7,0,23.3,0,35c-.3,0-.7,0-1,0c-3.1,3.1-7.1,8.4-10.9,10.5c-4.4,2.6-9.5,2.7-14.4,1.8c-27.6-5-17.7-46.5,7.3-49.3c1-.7,2-1.3,3-2c-2.3,.3-4.7,.7-7,1c.7-.7,1.3-1.3,2-2c-5.8-1.9-7.8-2.1-14-1c-4,.6-5.7,2.1-9,4c-16.5,9.6-22.3,19.6-22,39c.3,0,.7,0,1,0c.3-.3,.7-.7,1-1c.5,3.4,3.6,10.6,6,13c-1,0-2,0-3,0c2,4.9,5.3,6.8,10,9c1.7-.3,3.3-.7,5-1c2.1,4.1,12.5,4,17,4c-4,1.3-7.9,1.1-12,1c0,.3,0,.7,0,1c21.1,.4,27.1-6.9,42-19c2.5,25.6,35.9,22.2,39,1c-1-.3-2-.7-3-1c-3.5,4.9-10.5,4.5-13.4-.7c-5-9.1-1.7-55.5-1.6-68.3c-.3,0-.7,0-1,0c.2-7.6-7-15.8-5-21Z"/>
<path d="M1024,878c.3-.3,.7-.7,1-1c-3.6-3.6-1.4-9.5-9-7c1.7,1.7,8,6.2,8,8Z"/>
<path d="M636,1043c1.4-4.2,1.3-7.7-2-11c-6.8,2.2-9.5-2.7-11,7c1.7,.3,3.3,.7,5,1c-1.7,1.7-4.7,1-7,1c-.3,.7-.7,1.3-1,2c1.4,1.4,4.2,5,6,5c-.3-.3-.7-.7-1-1c1.9-2.6,4.6-7.4,8-4c.3-.3,.7-.7,1-1c.7,.3,1.3,.7,2,1Z"/>
<path d="M973,1107c-2.8-2.8-2.1-5.2-2-9c-.7,2.7-1.3,5.3-2,8c-.3,0-.7,0-1,0c1.6,4.8,5.4,5.7,10,4c-1.3,0-2.7,0-4,0c-.3-1-.7-2-1-3Z"/>
</g>
<g fill="#9A6DCC">
<path d="M532,143c1.3,0,2.7,0,4,0c-.7,.7-1.3,1.3-2,2c5.2,.1,9.9-1.1,15-1c-1.3-.3-2.7-.7-4-1c1.3-.3,2.7-.7,4-1c-1-.7-2-1.3-3-2c-6.8-.2-8.2,.1-14,3Z"/>
<path d="M516,147c.3,.3,.7,.7,1,1c-.3,1-.7,2-1,3c4.5,.2,8.1,.6,12-2c-.3-.3-.7-.7-1-1c2-2,2-2,3-5c-5,.7-9.1,3-14,4Z"/>
<path d="M506,150c.3,0,.7,0,1,0c.3,.7,.7,1.3,1,2c1.3-.3,2.7-.7,4-1c0-1,0-2,0-3c-2,.3-4,.7-6,1c0,.3,0,.7,0,1Z"/>
<path d="M512,180c4.4-1.5,8.9-2.8,13-5c-4.3-.6-7.7-1.4-12,0c1,2,1,2,2,3c-1,.3-2,.7-3,1c0,.3,0,.7,0,1Z"/>
</g>
<g fill="#3B3B4C">
<path d="M452,208c-5.9-5.9-4-21.9-4-30c2.9-1.5,5.5-1.5,8-4c-1.7,0-3.3,0-5,0c-.3,.7-.7,1.3-1,2c-2.9,0-2.9,.1-5-2c-3.8,.5-6.1,1.5-9,4c.7,1,1.3,2,2,3c-.3,.7-.7,1.3-1,2c-2.1-.6-3.8-1-6-1c0-.3,0-.7,0-1l-5,2c-.3,1.3-.7,2.7-1,4c1,.3,2,.7,3,1c-3.2,.1-5.9-.1-9-1c1.3,1,2.7,2,4,3c-4.3,1.8-9.4,3-14,3c-12,4-43,27-53,36c-14.8,13.4-31.3,25-46.3,38.5C276,297.9,234.6,344,210,382c-3.5,5.4-22.9,27.4-21,33c.9,2.5,7.5,9.3,9.5,11.9c9.6,12.9,19,25.6,29,38.2c46,58.3,96.4,107.4,155.5,152.9c13.7,10.5,29.4,22.5,45,30c17.7,8.5,32.8,20.3,52,26c13.4,4,35.8,18,50,18c1-.3,2-.7,3-1c-1-.3-2-.7-3-1c2.3-.8,6.2-2.8,8-1c-1.3,1.3-2.7,2.7-4,4c.7,.3,1.3,.7,2,1c5.7,.8,15.8,4.2,20,0c0-1.7,0-3.3,0-5c-.7,.7-1.3,1.3-2,2c-1.3-.7-2.7-1.3-4-2c2-.7,4-1.3,6-2l-2-2c-3.4,.5-6.6,1-10,1c1.3-.7,2.7-1.3,4-2c-5.1,1.3-7.2,2.9-12,0c.7-.7,1.3-1.3,2-2c-2.7-.5-3.7-.4-5-3c-9.4-4.7-21.6-8-30-14c-18.6-13.1-40-24.7-59-37c-13.1-8.5-27.4-21.4-39-32c-19.2-17.5-41.3-35.1-58-55c-24.2-28.9-48.2-58.2-69.9-90.1c-3.2-4.8-23.5-33.5-23.1-36.9c.5-4.1,22.1-32.9,26-38c12.5-16,23.9-33.3,36.9-48.9C354.8,281.8,401,237.8,452,208Z"/>
<path d="M472,197c-3.7-5.5-4.2-1.6-9,0c0,1,0,2,0,3c1.7-.3,3.3-.7,5-1l4-2Z"/>
<path d="M538,221c-2-2-10.1-1-13-1c-10.1-.6-23.2,12-24,12c.7,1.3,1.3,2.7,2,4c2.9,0,2.9-.1,5,2c8-4.6,16.9-12.6,27-9c-.1,3.1-.4,6.1,1,9c.3,0,.7,0,1,0c.1-4.6-1.7-14.3,1-17c1.3,5-.1,9.9,0,15c.7-1.3,1.3-2.7,2-4c1.3,3.6,.6,5.6-1,9c-.7-.7-1.3-1.3-2-2c0,.7,0,1.3,0,2c.9,6.5,4.4,9.6,9,14c1.7-.8,3.2-1.4,5-2c-1.3-.7-2.7-1.3-4-2c0-2,0-2,1-4l-2-3c-.7,1-1.3,2-2,3c-1.9-1.9-1-7.4-1-10V225c-1.4,0-3.1-3.1-5-4Z"/>
<path d="M504,242c-2.2-2.5-2.6-3-6-3c0,2.4-1,3.4-1,6c2.4,1.2,2.2,1.6,3,4c2.2-2.2,2.9-4.1,4-7Z"/>
<path d="M499,253c-.3-1-.7-2-1-3c-.3,2.7-.7,5.3-1,8c-.7-.3-1.3-.7-2-1c.6-2.8,1-5.2,1-8c-1.8,1.8-1.2,4.2-3,6c0-2,0-4,0-6c-.9,1.8-1.6,3.6-3,5c0,2.7,0,5.3,0,8c-3.6-.2-4.9,0-8,2c1,3,1,3,3,5c-1.7,.3-3.3,.7-5,1c0-1,0-2,0-3c-1-.3-2-.7-3-1c-14.7,5.4-23,25.2-23.3,39.9c-.1,4.1,2,9.4,.6,13.2c-.4,1.2-3.9,2.4-5.2,4.3c-7.6,10.6-13.4,24.4-12,37.9c1.2,11,4.8,18.3,10.4,27.6c.9,1.6,3.5,3.4,3.5,5.1c-.3,1.3-.7,2.7-1,4c-13.6-.1-28.4-1.3-41.8-.2c-6.5,.5-12.8,4.2-19.9,4.1c-1.7,0-2.9-1-4.3-1.9c2.9,0,5.2-.4,8-1c-10.3-3.4-27.9-1.1-39-1c0-.3,0-.7,0-1c-1.3-8.1-7.8-12.9-16.1-10.6c-18.9,5.5-8.9,33.9,8.4,26.3c5.3-2.3,6.6-4.3,7.7-9.7c32.3,0,64.7,0,97,0c0,15.6,2.5,20.6,11,33c1.1,1.6,1.2,3.2,3,4.5c2.8,2,8.8,4.2,11,6.5c3.2,3.4,4.7,17,7.9,22.3c11.2,18.6,29.5,28.7,51,28.9c5.3,0,10.3,.3,15.1-2.2c2.9,2.9,5.7,7.8,9,10c7,4.6,21.5,8.6,25.3,17.4c8.1,19-1,40,7.2,58.6c1.7,3.8,3.3,7.6,7.5,9c.7-.7,1.3-1.3,2-2c-12.6-10.3-8.3-59-1.9-72.6c3.4-7.1,9.8-11.1,13.9-17.4c4.4-6.8,9.1-17.9,10.6-26c3.2-17.9-2.6-45.5,2.4-60.5c5-15.1,19.4-24.7,22-40.5c0-.7,0-1.3,0-2c-.7-.3-1.3-.7-2-1c.9-3.3,1.5-6.6,2-10c1.1,1.1,1.1,1.1,2,5l1-6c0-2,0-4,0-6c-.7,.7-1.3,1.3-2,2c-.3-1.7-.7-3.3-1-5c-1.1,1.1-1.1,1.1-2,5c-1.3,15.5-6.8,23.9-15.1,36.4c-1.3,2-3.4,6.6-5.9,6.6c-.3,0-.7,0-1,0c0-28.5,.1-57.1,.1-85.6c0-11.2,2-26.8-1.1-37.4c-10.3,3.7-4.3,11.3-7,20v4c.3,1,.7,2,1,3c1.7,0,1.8-.2,3,1c.3-.3,.7-.7,1-1c1.8,5.5,5.1,11-1,15c-1-1-2-2-3-3c0,49.3,0,98.7,0,148c-.3,0-.7,0-1,0c-3.2,9.7-3.3,19.7-8.4,29.4c-4.7,8.9-14.4,14.5-16.6,24.6c-3.1,0-4.8-2.9-7-4.9c-6.2-5.7-14.3-6.8-20.4-11.6c-2.5-2.1-5-5.8-6.9-8.5c-3.1-4.5-2.1-10.4-5.7-14c-1.3,.7-2.7,1.3-4,2c.3,3,.7,6,1,9c-4.3,2.9-8.6,2.5-13.7,2.5c-22.8-.1-44.5-17.9-48.3-40.5c7.7,.3,11.8-1.8,19-3c0-2,0-4,0-6c-4.8-1.6-13.1,2.3-20.3,.8c-16.1-3.2-27.2-22.3-25.8-37.9c.5-4.9,2.6-8.4,4.1-12.9c-4.4-4.7-8.6-7.5-11.5-13.6c-7.7-15.8-3.7-48,15.5-54.4c-.6-3-2.2-5.2-3-8c-3-10.9,2.4-22.4,8-31c.4-.6,.6-2.7,1-3c1.7-1.4,3.5-1.5,5.4-3.4c2.6-2.6,9-7.3,12.7-6.5c3,.7,7.5,14.6,16.9,17.9c-2.3,2-5.6,6.4-6.8,9.1c-2.3,5.2-.9,20.5,5.8,20.9c1.6-4.7-.9-3.7-1.1-6.9c-.5-12.2,4.3-23.7,18.1-19.1c2,1,2,1,5,1c.3-1,.7-2,1-3c-7.1-7.5-8.5-4.9-16.9-7.6c-12.6-4.1-14.7-18.2-13.1-29.4ZM348,396c1,7.4-7.3,18.2-13.3,10.5c-8.9-11.3,2.8-21,13.3-10.5Z"/>
<path d="M580,264c-7.5-10.2-13.3-7.4-24-10c0,1.7,0,3.3,0,5c-2.6,1.5-3.9,2-7,2c-3.7,4.2-5.9,7.4-4,13c1.7-.3,3.3-.7,5-1c1-9.2,14-16,19-11c4.5-2.2,6.2,.8,9,4c-.7,.3-1.3,.7-2,1l2,3c1.1-1.1,1.1-1.1,2-6Z"/>
<path d="M565,306c-.3,0-.7,0-1,0c-.7-1.3-1.3-2.7-2-4c-.7,1.3-1.3,2.7-2,4c.7,6.4,4.7,13.4,10,17c.7-.3,1.3-.7,2-1c1.9,1.9,3.9,2.9,6,5c-.3,.3-.7,.7-1,1c-7.7,7.3-9.4,12.5-9,23c1.3,.3,2.7,.7,4,1c2.4-10.5,2.3-18.1,14-22c2.3-.8,4.6-1.4,7-2c-1.3-.7-2.7-1.3-4-2c2,0,4,0,6,0c-1.3-.3-2.7-.7-4-1c1.3-.7,2.7-1.3,4-2c-3.8,.1-7.3,.2-11-1c-10.2-2.3-14.6-6.8-19-16Z"/>
<path d="M610,310c1.7,0,1.8-.2,3,1c1-.3,2-.7,3-1c-.7-2.5-1-4.4-1-7c-.7,0-1.3,0-2,0c-.6,3-1.3,4.4-3,7Z"/>
<path d="M774,314c0-2.7,0-5.3,0-8c-.7,.3-1.3,.7-2,1c0,5,0,10,0,15v3c.7,.7,1.3,1.3,2,2c.7-.7,1.3-1.3,2-2c-1-.3-2-.7-3-1c-.1-3.5,0-6.6,1-10Z"/>
<path d="M612,318c-1-2-1-2.8-1-5c-.3,1-.7,2-1,3c-1.3-.3-2.7-.7-4-1c1.4,4.2,2.4,2.4,5,5l1-2Z"/>
<path d="M552,448c4.7,0,9.3,0,14,0c-1-.7-2-1.3-3-2c1,0,2,0,3,0c.7,1.3,1.3,2.7,2,4c7.1,5.8,11.4,9.4,11,19c1.7,.3,3.3,.7,5,1c.4-11.4-3.1-20-14-25c-.1-4.2-.8-9.3,1-13.3c1.9-4.1,6-4.6,6-9.7c-10.2,1.4-13.3,10.9-13,20c-29,.5-22.5-13.9-36-32c4.2-2,11.4-7,13.3-11.4c1.1-2.7,1.4-7.4,3.5-9.3c2.4-2.3,5.4-1.4,8.2-2.3c11.6-3.8,23.8-1.8,31,9c1.3-.3,2.7-.7,4-1c-1-18.3-32.2-17.3-44-13c-1.2-4.9-2.1-9.9-4.9-14.3c-5.1-7.9-11.7-9.4-12.4-20.4c-.4-6.8,8.3-24.2,8.3-24.3c-.1-.3-1.7-1.7-2-2c-6.2,4.4-10.7,10.3-12,18c-.3,1.9,.6,11.5-1,12c-2.5,.8-7.2-2.5-9.7-2.9c-12.1-2.3-31,3-35.3,15.9c1.6,1.6,2.2,2.6,4.6,1.8c3.2-.9,5.6-5.7,8.9-7.4c14.3-7.2,35.7-1.5,44.5,12.6c12.2,19.6-9.1,47.2-28.9,30.1c-3.6-3-5.5-4.6-7.1-9.1c-1.3,.3-2.7,.7-4,1c.2,1.6,.5,3.5,1,5c2.1,5.7,12.5,14,18.5,14.2c1.8,.1,5.9-.9,7.5-.2c1.8,.8,7,7.1,8,9c3.7,7,5.3,17.1,.6,24.1c-.9,1.3-4.2,3.6-4.6,4.9c-.3,.9,.6,3.2,1,4c7.2-1,9.6-7.6,11-14c3.9,4.4,10.3,8.3,16,8Z"/>
<path d="M379,348c1-.3,2-.7,3-1c1.7,1.7,4.7,1,7,1c0,.7,0,1.3,0,2c3.8-.8,5.2-2.1,8.1-4.7c5.7-5.1,2.9-18.5-3.8-21.9c-6.1-3.1-17.4,1.7-20.3,7.6c-.8,1.6-.3,6.3-.2,8.2c.3,4.1,2.9,6.6,6.2,8.8Zm15-6c-9.8,8.1-22.1-2.4-14.4-11.9c6.7-8.3,17.9,2.4,14.4,11.9Z"/>
<path d="M389,382c-.3,0-.7,0-1,0c0-10,0-20,0-30c-.7-.3-1.3-.7-2-1c.1,3.2-.1,5.9-1,9c.1-3.7-.1-6.4-1-10c0,10.7,0,21.3,0,32c.6,5.9,2.5,8,5,13c.3,0,.7,0,1,0c0-3,0-6,0-9l-1-4Z"/>
<path d="M806,386c2.3-4.5,6.5-8.5,8-13c-.7-.3-1.3-.7-2-1c-3.1,3.1-6.6,5.7-8,10l2,4Z"/>
<path d="M804,394l-2-4c-.9,6.9-3.7,12.6-8,18c1.1,1.1,1.4,2,3,2c3.8-3.8,8-5.5,13-7c0-.3,0-.7,0-1c-1-.3-2-.7-3-1c-1.3,.3-2.7,.7-4,1c0-2.2,0-2.2,1-8Z"/>
<path d="M402,397c-2-2-2-2-8-4c0,1,0,2,0,3c1.7,.9,2.6,1.6,4,3c3-1,3-1,4-2Z"/>
<path d="M786,438c-.3-.3-.7-.7-1-1c-.3,.7-.7,1.3-1,2c-.7-1.3-1.3-2.7-2-4v1c0,2.3,0,4.7,0,7c1.2,.6,2,1,3,2c.3,0,.7,0,1,0c0-2.3,0-4.7,0-7Z"/>
<path d="M886,446c3.2-1.6,16.2-6.4,17-8c-4.8-1.6-11.6,.6-16,3c-1,3-1,3-1,5Z"/>
<path d="M781,458c0-.7,0-1.3,0-2c-.3,.3-.7,.7-1,1c-1-.7-2-1.3-3-2l-1,3c3,6-2.9,10.3-1,17c.3,0,.7,0,1,0c11.5-11.5,32-18.8,34-36c-.7-.3-1.3-.7-2-1c-2.9,3.4-3.4,7-5.7,10.5c-3.9,5.8-15.9,12.5-22.3,15.5c0-1.1,0-1.1,1-6Z"/>
<path d="M871,452c-1.6-3.2-1.6-6.5-2-10c-.7-1-1.3-2-2-3c-1,4.9-1,4.9-1,6c.3,2.7,.7,5.3,1,8c.3,0,.7,0,1,0l3-1Z"/>
<path d="M382,443c-8-4.5-12.7-4.6-19,2c-1.8,1.8-3,2.2-3,5c2.4,1.2,2.2,1.6,3,4c.7-1,1.3-2,2-3c1.5-4.4,5.3-6.8,10-6.2c1.7,.3,3.4,2.2,4.6,3.5c8.7,10.6-9.4,21.6-14.6,8.7c-.7-.7-1.3-1.3-2-2c-.3,.7-.7,1.3-1,2c-.7-.7-1.3-1.3-2-2c0,1.3,0,2.7,0,4c0,12.3,23.1,12.8,27-2c13.5-4,40.2-1.1,55-1c0,.3,0,.7,0,1c6.5,0,8.7,7,15,7c0-27.1-62.4-3.1-71-16c-.3,1.3-.7,2.7-1,4c-.7,0-1.3,0-2,0c-1.6-3.4-2.3-5.4-1-9Z"/>
<path d="M424,509c1.1,2.2,4.8,8,7,9c7.7,3.6,17.8-3.4,19-11c16.9,.1,38.7,2.7,55-1c-.3-1.3-.7-2.7-1-4c-17.7,0-35.3,0-53,0c-4.5-13.5-21.9-17.4-27-2c.3,1,.7,2,1,3c1,0,2,0,3,0c.9-2.6,1.9-4.5,4.1-6.3c12.3-10.2,19.8,22.4,1.5,15.6c-3.7-1.4-4-4.1-5.6-7.3c-.7,.7-1.3,1.3-2,2c-.7-.7-1.3-1.3-2-2c0,1.3,0,2.7,0,4Z"/>
<path d="M724,498c0-.3,0-.7,0-1c-1.3,1-2.7,2-4,3c-.3-.3-.7-.7-1-1c-1,.3-2,.7-3,1c0,1,0,2,0,3c-9.7,2.7-13.5-6-21-6c6.1,12.3,22.1,11.2,29,1Z"/>
<path d="M754,502c0-.3,0-.7,0-1c-1.7-.3-3.3-.7-5-1c-3.4,5.2-5.1,9.7-8,15c0,1,0,2,0,3c4.1-4.1,4.5-10.5,9-15c.3,1.3,.7,2.7,1,4l3-5Z"/>
<path d="M851,510c.3,0,.7,0,1,0c-.3-1.3-.7-2.7-1-4c-3.3,1-6.5,1.1-10,1c1.3,.7,2.7,1.3,4,2l6,1Z"/>
<path d="M493,572c-7.1-2.3-13.3-.4-20.5-4.1c-11.6-6-14.8-18.6-30.5-17.9c.3,1.4,.7,2.7,1,4c14.3,1.4,18.2,13.3,29.8,19.4c14.4,7.7,47,1.1,50.2,25.6c1.4,.3,2.7,.7,4,1c.8-2.5,1.1-3.3-.3-5.7c-9.4-16.7-24.2-18.7-35.3-33c-4.7-6-3-16.2-7.4-23.3c-1.6-2.5-4.3-3.5-7-4c0,5.3,4,5.2,5.5,9.5c2.8,7.5,1,13.9,6.2,21.8c1.8,2.7,4.3,3.3,4.3,6.7Z"/>
<path d="M564,611c1.3,0,2.7,0,4,0c-1-.3-2-.7-3-1c.3-.3,.7-.7,1-1c-.3-.3-.7-.7-1-1c1-.7,2-1.3,3-2c-19.1-1.3-18.1-24.2-18-38c7.7-1.2,11.3-7.5,11.1-15c0-3-2.3-5.3-4.4-7.3c-16-14.4-34.7,12.7-12.7,23.3c-.3,14.7-1.8,25.2,9.2,36.2c3.3,3.3,5.9,5.8,10.8,5.8Zm-9-51c-7.7,9.6-20.4-.8-15.3-9.1c6.5-10.7,16.8-.9,15.3,9.1Z"/>
<path d="M735,584c-1-1-1.4-1.8-2-3c-.7,.7-1.3,1.3-2,2c.3-2,.7-4,1-6c.7,1,1.3,2,2,3c-.7-2.7-1.3-5.3-2-8c-1.1,4.7-3,9.1-3,14c.7-.7,1.3-1.3,2-2c.9,1.7,1.6,2.6,3,4l1-4Z"/>
<path d="M724,608c-1,0-2,0-3,0c.7-1,1.3-2,2-3c-.3-.3-.7-.7-1-1c-.7,.3-1.3,.7-2,1c-2.6,4.8-6.3,7.2-10,11c7.3,0,9.9-2.4,14-8Z"/>
<path d="M588,661c-1.3-5-3.6-7.3-7-11c-18-19.4-39.8-5.6-61.3-14c-16-6.2-6.2-15-10.7-23c-4.1-7.2-14.9-9.4-21-4c-14.4,12.9,2,26.6,17,22c20.2,26,49,2.9,70,22c3.7,3.4,6.5,4.8,8,10c.7-.7,1.3-1.3,2-2c.7,.7,1.3,1.3,2,2c.3-.7,.7-1.3,1-2Zm-88-50c8.6,5.9,4.4,18.7-6.1,15.9c-9.3-2.5-6.4-17.5,6.1-15.9Z"/>
<path d="M600,614c-4.3-4.3-9.8-7.3-16-7c-4.7,0-9.3,0-14,0c.7,1.3,1.3,2.7,2,4c-.3,.3-.7,.7-1,1c4.3,0,8.7,0,13,0c0,.3,0,.7,0,1c14.1,2,18.1,12.4,22,24c2.5,7.6,1.1,18.4,1.1,26.4c0,19.2-.1,38.4-.1,57.6c.7,.7,1.3,1.3,2,2c3-1,3-1,4-2V640c0-6.6-2.7-11.1-5-17c-2.7,0-4.7-2-8-2c.7-1,1.3-2,2-3c-1,0-2,0-3,0c1.4-1.4,1-2.1,1-4Zm10,31c2.5,3.7,1.8,6.8,1,11c-3.4-1.7-2.7-6.4-3-10c.7,.7,1.3,1.3,2,2c0-1,0-2,0-3Z"/>
<path d="M586,715c0,.3,0,.7,0,1c2.7,1.4,3.5,.4,6-1c.1-14.6,1.4-30.6-1-45c-.7-1-1.3-2-2-3c-.4,4.5-.9,8.6-2,13c0-3.3,0-6.7,0-10c-3.3,13.2-1.1,31.2-1,45Z"/>
<path d="M596,782c-9.6,1.3-34.3,25.2-19,29c9.3-21,40.8-21.8,39,3c-1.7,23.1-24.8,40.2-38.7,56.5c-1.4,1.7-5.5,3.1-6.3,4.5c-.3,.6,0,5,0,6c20.7,0,41.3,0,62,0c1.9-7.7,5.9-15,7-23c-.7-.3-1.3-.7-2-1c-2.6,2.6-5.7,6.6-9,8.2c-6.9,3.5-27.7,.9-36,.8c0-3.3,3.7-4.9,6-7.3c16.1-16.3,44-36.1,33-61.7c-4.5-10.5-10.7-14.5-22-16c-2.7,0-5.3,0-8,0c1.2,2.4,1.6,2.2,4,3c-3.9,.2-6.8-2-10-2Z"/>
<path d="M252,837c.3,16.5-7.2,114.3-13.2,124.5c-3.4,5.9-10.3,9.4-16.8,10.5c-.3,1-.7,2-1,3c18.7,0,37.3,0,56,0c.3-1,.7-2,1-3c-10.6-1.8-16.1-6-19.6-16.3c-3-9.2,.2-23.3,.6-32.9c.8-16,2-31.8,3-47.7c.7-11.1-1.4-27.7,2-38.1c3.6,10.7,9.4,20.8,14.3,30.7c6,12.3,10.6,25.4,16.7,37.8c3.3,6.9,7.6,13.8,11,20.5c2.1,4.1,3.1,9.8,5,14c.6,1.4,2.5,2.6,3,4c.8,2,.5,4.3,1.5,6.4c3.7,8.3,9.1,15.8,12.5,24.6c2.7,.1,8.8,1.1,10.8-.7c5-4.3,5.5-13.1,8.6-18.7c18.5-33.1,31.4-69.8,47.8-104c1.9-4,5.4-15.9,8.8-17.6c-.3,24,14.7,112.6,5,128c-3.3,5.3-8.3,9.1-15,10c-.3,1-.7,2-1,3c23.3,0,46.7,0,70,0c.3-1,.7-2,1-3c-8.5-2.2-14.8-3.5-19.2-12.2c-5-9.9-13.1-125.8-10.3-138.1c2.2-9.6,10.9-15.2,20.5-14.7c.3-1,.7-2,1-3c-17.7,0-35.3,0-53,0c6.8,1.7,14,1.1,21,1c-4.2,1.1-18,0-20,2c.7,.3,1.3,.7,2,1c-.3,2-.7,4-1,6c-.7-1.3-1.3-2.7-2-4c-2,3-2,3-3,6c-1,0-2,0-3,0c-10.3,26.5-23.7,51.2-34.9,77c-4.3,10.1-7.8,19.3-13.1,29c-2.5,4.5-2.6,8.7-6,13c-7.9-7.9-15.4-35-21-46c-8.5-16.7-18.3-36.7-24-55c-3.3-10.6-10.8-20-13-31c-19.3,0-38.7,0-58,0c.3,1.3,.7,2.7,1,4c9.2,.7,18.5,3,23,12c4.6,1.5,5.5,4.6,4,9c-.3-1.3-.7-2.7-1-4c-1.3,4.3-1.1,8.6-1,13c-.3,0-.7,0-1,0Z"/>
<path d="M557,803c-24.3,0-48.7,0-73,0c0,1.4,0,2.7,0,4c6.6,.9,15.2,2.5,18.4,9.2c1,2.2,2.7,6.8,2.9,9.3c2,28.8,0,59.3,0,88.4c0,11,2.6,30.8-1.3,40.8c-3.2,8.3-8.9,17.1-19,16.3c-.3,1.4-.7,2.7-1,4c23.7,0,47.3,0,71,0c.3-.7,.7-1.3,1-2c-5.3-2.7-14.4-4.3-17.3-10.1c-1.4-2.8-3.8-8.3-4-11.4c-1.8-29.5,0-60.5,0-90.1c0-10.8-2.2-27.6,.6-37.7c2.8-10,9.7-17.3,20.7-16.7c.3-1.4,.7-2.7,1-4Z"/>
<path d="M840,961c1,0,2,0,3,0c-2.4-2.4-5.5-9.6-6-13c-.3,.3-.7,.7-1,1c.4,3.9,4,9.6,4,12Z"/>
<path d="M707,968c3.5,.2,5.4,.6,8-2c-1.3-.3-2.7-.7-4-1l-4,3c-3.8,.5-6.1,1.5-9,4c.3,.7,.7,1.3,1,2c2.7,0,5.3,0,8,0c-1-.3-2-.7-3-1c0-.7,0-1.3,0-2c2-1,2-1,3-3Z"/>
<path d="M860,974c4.1,.1,8,.3,12-1c-4.5,0-14.9,.1-17-4c-1.7,.3-3.3,.7-5,1c3.2,2.8,5.8,3.5,10,4Z"/>
<path d="M323,1041c55.2-.1,111.6-2.6,166.7-.1c26.4,1.2,52.9,1.2,79.5,1.2c10.8,0,24.5,1.6,34.8-1.1c-.3-1.4-.7-2.7-1-4c-43.7,0-87.3,0-131,0c0,.3,0,.7,0,1c-49.3,0-98.7,0-148,0c-.3,1-.7,2-1,3Z"/>
<path d="M257,1110c1,0,2,0,3,0c0-9,0-18,0-27c-1,.3-2,.7-3,1c0,3,0,6,0,9c-22.6-3.8-13.5,25,0,16c0,.3,0,.7,0,1Zm-2-15c3.1,6.8,.6,17.1-6,11c-2.8-2.7-1.8-11.2,6-11Z"/>
<path d="M506,1107c4.4,4.4,9.3,1.9,15,3c0-8.7,0-17.3,0-26c-1-.3-2-.7-3-1c0,3,0,6,0,9c-.7,0-1.3,0-2,0c-1.7,.3-3.3,.7-5,1c1.3,.7,2.7,1.3,4,2c6.3,4.7,3.9,13.6-5,11c-1.9,0-2.6-.4-4,1Z"/>
<path d="M616,1088c.3-1.4,.7-2.7,1-4c-1-.3-2-.7-3-1c-.3,1.4-.7,2.7-1,4c1,.3,2,.7,3,1Z"/>
<path d="M677,1107c-8.3-12.5,10.5-18.4,6-1c1,2,1,2,2,3c1,0,2,0,3,0c0-8.7,0-17.3,0-26c-1.3,.3-2.7,.7-4,1c0,3,0,6,0,9c-17-5.7-14.3,17-8,17c1.7,0,3.3,0,5,0c-1.3-1-2.7-2-4-3Z"/>
<path d="M711,1083c0,8.7,0,17.3,0,26c1.7,.3,3.4,.7,5,1c.3-.7,.7-1.3,1-2c-1-.3-2-.7-3-1c0-7.7,0-15.3,0-23c-1-.3-2-.7-3-1Z"/>
<path d="M788,1083c0,8.7,0,17.3,0,26c1.7,.3,3.4,.7,5,1c.3-.7,.7-1.3,1-2c-1-.3-2-.7-3-1c0-7.7,0-15.3,0-23c-1-.3-2-.7-3-1Z"/>
<path d="M796,1083c0,8.7,0,17.3,0,26c1.7,.3,3.4,.7,5,1c.3-.7,.7-1.3,1-2c-.7-.3-1.3-.7-2-1c0-7.7,0-15.3,0-23c-1.4-.3-2.7-.7-4-1Z"/>
<path d="M206,1104c1.1,1.1,1.1,1.1,5,2c.6-4.5,3.8-10.8,7-14c0,5.7,0,11.3,0,17c1,.3,2,.7,3,1c0-8.7,0-17.3,0-26c-1.7,0-3.3,0-5,0c-1.6,4.1-4.1,14.1-8,16c-.8-5.5-4.4-9.6-6-15c-1.7-.3-3.3-.7-5-1c0,8.7,0,17.3,0,26c1-.3,2-.7,3-1c0-5.7,0-11.3,0-17c3.1,3.1,3.9,8.1,6,12Z"/>
<path d="M334,1110c0-8.3,0-16.7,0-25c-1-.3-2-.7-3-1c0,8.3,0,16.7,0,25c1,.3,2,.7,3,1Z"/>
<path d="M544,1092c.8,4.3,5.2,12.7,9,14c3.6-4.2,4.6-9.5,8-14c0,5.7,0,11.3,0,17c1.4,.3,2.7,.7,4,1c0-8.3,0-16.7,0-25c-7.7-1.9-10,8.6-12,15c-.7,0-1.3,0-2,0c-1.7-5.9-5.3-10.1-7-16c-1.7,0-3.3,0-5,0c0,8.7,0,17.3,0,26c1.4,.3,2.7,.7,4,1c-.1-6-.9-13.2,1-19Z"/>
<path d="M912,1110c4.7,0,9.3,0,14,0c.3-1,.7-2,1-3c-3.7,0-7.3,0-11,0c0-7.7,0-15.3,0-23c-1.3,.3-2.7,.7-4,1c0,8.3,0,16.7,0,25Z"/>
<path d="M952,1109c11.9,11.9,20-26.3,0-16c-.9-3.1-1.1-5.8-1-9c-.7,.3-1.3,.7-2,1c0,6,0,12,0,18c2.6-1.3,2.5-2.3,3-5c4.3-12.8,15.9,9,2,9c-1,0-2,0-3,0c.3,.7,.7,1.3,1,2Z"/>
<path d="M610,1092c-1.7,0-3.3,0-5,0c0-1.7,0-3.3,0-5c-1.4-.3-2.7-.7-4-1c0,1.4,0,2.7,0,4c-2.4,1.2-2.2,1.6-3,4c1,.3,2,.7,3,1c-.2,7.4-1.9,16.5,8,16c.3-1.4,.7-2.7,1-4c-1.7,0-3.3,0-5,0c0-3.7,0-7.3,0-11c3.6-.9,3.8-.4,5-4Z"/>
<path d="M768,1107c-1.7,0-3.3,0-5,0c0-3.7,0-7.3,0-11c2.8-.7,3.7-.3,5-3c-1.4-.3-2.7-.7-4-1c-.6-3.5-.6-3.9-4-5c0,1.4,0,2.7,0,4c-2,1-2,1-3,3c1,.3,2,.7,3,1c-.1,5.1-.3,10,1,15c2,0,4,0,6,0c.3-1,.7-2,1-3Z"/>
<path d="M240,1106c-3.7,1-6.3,1-10,0c-.3-1.4-.7-2.7-1-4c3.7,0,7.3,0,11,0c1.1-2.3,1.1-3.8,.1-6.3c-.9-2.4-2.6-3.8-5.3-4.2c-13.2-2.4-14.6,23.3,4.2,18.5c.3-1.4,.7-2.7,1-4Zm-11-7c1.5-4.6,2.4-4.1,7-4c.3,1.3,.7,2.6,1,4c-2.6,0-5.3,0-8,0Z"/>
<path d="M288,1106c-9.1,1.7-15.1-1.1-9-11c3.8,.7,6.1,1.9,9-1c-2.1-2.1-3.7-2.8-6.8-2.7c-20.3,1,.7,32.9,6.8,14.7Z"/>
<path d="M293,1097c2.5-2.5,3.6-2.2,7-2c.3,1,.7,2,1,3c-2.5,.5-4.9,1.2-7.3,2.2c-1.7,.7-1.9,.8-2.3,2.7c-3.2,12.4,7.8,5.5,11.9,6.5c.6,.1,1.1,.4,1.7,.6c0-8.7,2.2-26-13-17c.3,1.4,.7,2.7,1,4Zm8,5c-.3,1.7-.7,3.3-1,5c-1.6,0-3.3,0-5,0c0-3,0-3,1-5c1.7,0,3.3,0,5,0Z"/>
<path d="M343,1110c-.1-4.8,.2-9.3,1-14c3.5-1.2,3.8-.6,7,1c0,4,0,8,0,12c1,.3,2,.7,3,1c-.1-7.5-1.8-16,8-14c0,4.3,0,8.7,0,13c1,.3,2,.7,3,1c1.1-32.5-7.3-12.1-25-18c0,5.7,0,11.3,0,17c1,.3,2,.7,3,1Z"/>
<path d="M432,1110c.1-5,1.9-22.6-8-19c-3.8,1.4-2.1,2-7,1c0,5.7,0,11.3,0,17c1.4,.3,2.7,.7,4,1c0-4.7,0-9.3,0-14c4-1,4-1,8,1c0,4,0,8,0,12c1,.3,2,.7,3,1Z"/>
<path d="M482,1108c-1.5-5.8,2-17.4-7.2-17c-3.8,.2-4.7,.9-6.8,4c3,0,6,0,9,0c.3,1.3,.7,2.7,1,4c-6.6-.8-16.8,6.6-8,11c4.1,0,6.9-1.3,11,0c.3-.7,.7-1.3,1-2Zm-11-1c.3-1.6,.7-3.3,1-5c2,0,4,0,6,0c0,1.7,0,3.3,0,5c-2.3,0-4.6,0-7,0Z"/>
<path d="M486,1092c0,6,0,12,0,18c1.4,.3,2.7,.7,4,1c0-5,0-10,0-15c3-1,3-1,8,0c0,4.3,0,8.7,0,13c1,.3,2,.7,3,1c.2-5.3,2.5-22-7.4-19c-4,1.2-2.7,2.6-7.6,1Z"/>
<path d="M625,1110c-.3-7.8-2.8-16.2,8-14c0,4.3,0,8.7,0,13c1,.3,2,.7,3,1c-.3-7.8-2.8-16.2,8-14c0,4.3,0,8.7,0,13c1,.3,2,.7,3,1c.7-29-6-14.2-25-18c0,5.7,0,11.3,0,17c1,.3,2,.7,3,1Z"/>
<path d="M743,1111c-.1-7.5-2.1-17,8-15c0,4.7,0,9.3,0,14c1.4,.3,2.7,.7,4,1c.1-4.7,1.5-23.1-8-20c-3.7,1.2-2,2.7-7,1c0,6,0,12,0,18c1,.3,2,.7,3,1Z"/>
<path d="M781,1096l1-3c-18.9-11.9-14,31,2,15c-4.7-4.7-8.7,3.2-11-6c3.7,0,7.3,0,11,0c-.3-1.7-.7-3.3-1-5c-.3,1-.7,2-1,3c-2.7,0-5.3,0-8,0c0-1,0-2,0-3c1-1,2-2,3-3c1.3,.7,2.7,1.3,4,2Z"/>
<path d="M827,1092c-5.1,1.7-7.3-3.3-12.1,.1c-8.7,6.1-3.7,19.6,8.1,16.9c0,1.7,0,3.4,0,5c-3.7,1-5.6,1.1-9-1c-.7,1-1.3,2-2,3c2.3,2.9,4,3.7,7.7,2.9c10.9-2.3,7.5-18.6,7.3-26.9Zm-10,15c-3.8-6.1-3.8-13.3,5-11c1,3.7,1,6.3,0,10c-1.6,.3-3.3,.7-5,1Z"/>
<path d="M834,1102c3.4,0,6.7,0,10,0c1.2-2.3,1.1-3.8,.1-6.3c-3.1-7.3-10.5-5.7-14.1,.3c-2.2,3.7,1.5,14.1,5.8,14.7c2.4,.4,4.8-.1,7.2-.7c0-1,0-2,0-3c-2.8,0-5.2-.4-8-1c-.3-1.4-.7-2.7-1-4Zm8-3c-2.6,0-5.3,0-8,0c.3-1.3,.7-2.6,1-4c1.7,0,3.3,0,5,0c.7,1.3,1.3,2.6,2,4Z"/>
<path d="M870,1096c3.1-1.6,6.3,.2,10-1c-3.1-4.6-6.3-4.9-11-2c0,1,0,2,0,3c.3,0,.7,0,1,0Z"/>
<path d="M896,1106c-3.7,1-6.3,1-10,0c-.3-1.4-.7-2.7-1-4c4,0,8,0,12,0c0-9.7-10.3-16.7-15-6c-4.7,10.6,4.1,15.7,13,14c.3-1.4,.7-2.7,1-4Zm-10-7c.3-1.3,.7-2.6,1-4c1.7,0,3.3,0,5,0c.3,1.3,.7,2.6,1,4c-2.3,0-4.6,0-7,0Z"/>
<path d="M945,1110c0-.7,0-1.3,0-2c-.7-.3-1.3-.7-2-1c.2-5.6,1.9-15.5-5.9-15.9c-2.8-.2-4.9,1.5-6.1,3.9c2.7,0,5.3,0,8,0c.3,1.3,.7,2.7,1,4c-5-.5-6.7,0-10,4c0,2,0,4,0,6c5.2,1.4,10-.7,15,1Zm-5-8c-.3,1.7-.7,3.3-1,5c-1.6,0-3.3,0-5,0c0-3,0-3,1-5c1.7,0,3.3,0,5,0Z"/>
<path d="M971,1098c.3-1,.7-2,1-3c2,0,4,0,6,0c2,4.1,2,6.6,1,11c-4.9,1-4.9,1-6,1c.3,1,.7,2,1,3c1.3,0,2.7,0,4,0c10.2,0,5.6-30.5-9.8-15.2c-2.4,2.4-.9,8-.2,11.2c.3,0,.7,0,1,0c.7-2.7,1.3-5.3,2-8Z"/>
<path d="M1012,1095c-3.5-4.3-7.3-4.9-12-2c.3,1.3,.7,2.7,1,4c3-1.8,4.6-2.2,8-1c-.3,1-.7,2-1,3c-13,1-12.1,14.4,0,11c0-.3,0-.7,0-1c-1.1-1.1-1.1-1.1-5-2c0-1.3,0-2.7,0-4c1.7-.3,3.3-.7,5-1c.3,1.3,.7,2.7,1,4c1,1,1,1,3,2c0-4.3,0-8.7,0-13Z"/>
<path d="M269,1110c0-5.7,0-11.3,0-17c-1-.3-2-.7-3-1c0,6,0,12,0,18c1,0,2,0,3,0Z"/>
<path d="M379,1096c3.3,5.2-.5,9,2,14c1.3-.3,2.7-.7,4-1c-.4-.4-.9-.9-1.3-1.3c-4.6-4.6,5.5-17.8-9.9-15.3c-3.2,.5-2.8,.7-3.8,3.6c3.3-1.1,5.6-.8,9,0Z"/>
<path d="M389,1094c-6.9,10.3,.2,17.1,11,15c-.3,1.7-.7,3.3-1,5c-3.9,1.3-6.2,.3-10-1c-3,9.1,11.3,7.8,14,.5c1.8-4.9,.2-15,0-20.5c-3-1-3-1-6-1c-1.3,.3-2.7,.7-4,1c1.3,.7,2.7,1.3,4,2c6.3,4.7,3.9,13.6-5,11c-.7-3.2-1-5.7-1-9c0-.7,0-1.3,0-2c-.7-.3-1.3-.7-2-1Z"/>
<path d="M449,1109c-.3,1.7-.7,3.4-1,5c-4.1,1.3-6.9,0-11,0c.3,1.4,.7,2.7,1,4c18.6,4.8,14.4-13.2,14-25c-.7-.3-1.3-.7-2-1c-.3,.7-.7,1.3-1,2c-3.1-3.1-5.6-2.1-10-2c-5.7,11.3-5,19.6,10,17Zm-8-3c-.6-2.8-3-16.5,5-11c3.7,2.6,4.5,13.5-5,11Z"/>
<path d="M582,1092c.3,7.8,2.8,16.2-8,14c0-4.3,0-8.7,0-13c-1.4-.3-2.7-.7-4-1c-.1,5.5-1.7,18.9,5.9,18.8c3.8-.1,4.3-1.8,9.1-.8c0-5.7,0-11.3,0-17c-1-.3-2-.7-3-1Z"/>
<path d="M666.6,1093.9c-11.4-8.6-21.3,6.2-12.5,15c9.5,9.5,16.8-5.7,12.5-15ZM663,1095c.5,2.4,.9,4.8,1,7.2c.1,3.6-5.4,6.8-8,3.8c-1.3-1.5-1-10,1-10.8c1.5-.6,4.3-.2,6-.2Z"/>
<path d="M805,1110c1,0,2,0,3,0c0-6,0-12,0-18c-1,.3-2,.7-3,1c0,5.7,0,11.3,0,17Z"/>
<path d="M1028.9,1093.5c-3.4,9.1,1.9,24.7,13,14.5c7.3-6.8-1.9-22.5-13-14.5Zm3.1,12.5c-.4-2.6-2-16.6,6-11c4.9,3.4,2.7,14.1-6,11Z"/>
<path d="M509,1097c0-3,0-3-1-4l-1,1c-.9,4.5-1.7,7,1,11c0-2.3,0-4.7,0-7c.3,0,.7,0,1,0v-1Z"/>
<path d="M377,1102c.7-.7,1.3-1.3,2-2c-2,0-4,0-6,0c-7.3,2.4-3.9,13.2,5,10c0-.3,0-.7,0-1c-1.3-.7-2.7-1.3-4-2c-.3-1-.7-2-1-3c1.3-.7,2.7-1.3,4-2Z"/>
</g>
<g fill="#5F3B8F">
<path d="M431,181c0,.3,0,.7,0,1c2.2,0,3.9,.4,6,1c.3-.7,.7-1.3,1-2c-.7-1-1.3-2-2-3c-1.7,.7-3.3,1.3-5,2c0,.3,0,.7,0,1Z"/>
<path d="M409,193c4.6,0,9.7-1.2,14-3c-1.3-1-2.7-2-4-3c-3.9,1.4-7.1,3.1-10,6Z"/>
<path d="M606,197c-11.5-11.5-24.2-9-39-7c-1.3,1.3-2.7,2.7-4,4c1,1,2,2,3,3c-1.3,.7-2.7,1.3-4,2c0,1,0,2,0,3c13.1-4.6,24.4-6,37,1c1-.3,2-.7,3-1c0,1,0,2,0,3c1.3-1,2.7-2,4-3c-1.9-1.9-3-2.2-3-5c1,0,2,0,3,0Z"/>
<path d="M614,205l-2-2c-1,.7-2,1.3-3,2c-.7-.7-1.3-1.3-2-2c-1.2,1.1-3,2.3-3,4c2.5,3,4.4,7.4,7,10c1.3,.3,2.7,.7,4,1c.3-1,.7-2,1-3c-.5,3.7-1,7.3-1,11c0,11,0,22,0,33c-1-1-2-2-3-3c-.7,1.3-1.3,2.7-2,4c-.7-.3-1.3-.7-2-1c6.3,12.5,7.2,21.1,7,35c2.7-8.7-3.3-16.3,7-20c3.1,10.6,1.1,26.2,1.1,37.4c0,28.5-.1,57.1-.1,85.6c.3,0,.7,0,1,0c0-37.4,.1-74.8,.1-112.1c0-20.2,1.7-42-1.1-61.9c-.3,0-.7,0-1,0c-.3-1.3-.7-2.7-1-4c-.3,1-.7,2-1,3c-2.5-4.7-2.9-10.4-8-13c.7-1.3,1.3-2.7,2-4Z"/>
<path d="M666,220c2-2,1-10.9,1-14c-1.9,3.3-2.5,6.3-3,10c-.3,0-.7,0-1,0v2c-.3,2-.7,4-1,6c1.3-1.3,2.7-2.7,4-4Z"/>
<path d="M667,225c9.1-4.6,16.9-12.6,28-12c.3-1,.7-2,1-3c-13-.3-19.3,4.8-30,11c0,1.9-.4,2.6,1,4Z"/>
<path d="M546,244c-.8-2.5-1.8-4.7-3-7c0,2.6-.9,8.1,1,10c.7-1,1.3-2,2-3Z"/>
<path d="M600,244c-1.1-1.1-1.1-1.1-7-3c-2,2-2,2-5,3c2.6,1.4,5.1,2.4,8,3c0-.3,0-.7,0-1c1.3-.7,2.7-1.3,4-2Z"/>
<path d="M653,245c-1.3-1.3-2.7-2.7-4-4c-5.5,9.3-4.9,33.2-4.2,44.2c.2,4,2.2,6.5,2.2,10.8c1.3,.3,2.7,.7,4,1c0-1.7,0-3.3,0-5c-4.3-14.5,.5-32.4,2-47Z"/>
<path d="M650,358c.3,0,.7,0,1,0c-.4-21-.7-47.4,12.4-64.9c5.8-7.7,15-13.4,24-16.7c8.4-3.1,29.6-1.3,30.6-14.4c-3.6,1.7-5.5,4.1-8.7,6c-6.8,4-15.7,4-23.3,4c5.9-7.2,3.7-15.6,7.9-22.3c2.2-3.6,5.7-4.4,7.1-8.7c-1.8,.2-3.4,.6-4.9,1.6c-9,6.5-7.7,18.7-14.2,27.8c-8.6,12.2-23.1,14.9-28.9,30.6c-.3-1-.7-2-1-3c-6.5,3.2-4.3,12.6-4,19c-.3,0-.7,0-1,0c.3,12.1-2,24.9-2,37c.9-3.9,.9-3.9,2-5c.3,1.7,.7,3.3,1,5c.7-.7,1.3-1.3,2-2c0,2,0,4,0,6Z"/>
<path d="M578,270c1,.3,2,.7,3,1c.9-3.4,1.6-4.4-1-7c-.9,4.9-.9,4.9-2,6Z"/>
<path d="M560,306c.7-1.3,1.3-2.7,2-4c.7,1.3,1.3,2.7,2,4c.3,0,.7,0,1,0c0-1.7,0-3.3,0-5c-5.1-1.7-6.7-.1-5,5Z"/>
<path d="M729,586h-1c-1.9,7.2-3.8,12.7-8,19c.7-.3,1.3-.7,2-1c.3,.3,.7,.7,1,1c-.7,1-1.3,2-2,3c1,0,2,0,3,0c5-5,7.9-13.4,10-20c-1.4-1.4-2.1-2.3-3-4c-.7,.7-1.3,1.3-2,2Z"/>
</g>
<path d="M566,197c-1-1-2-2-3-3c1.3-1.3,2.7-2.7,4-4c-3.8,.5-6.1,1.5-9,4c2.7,1.3,4.9,3,8,3Z" fill="#9A6DCC"/>
<g fill="#5F3B8F">
<path d="M650,211c-.5-5.4-4.3-15.3-8-19c-.7,.3-1.3,.7-2,1c2.6,8,9,19.9,9,28c2.3-3.4,2.3-3.4,1-10Z"/>
<path d="M541,209c1,0,2,0,3,0c.3-.7,.7-1.3,1-2c2.5,.7,4.4,1,7,1c0-3.2,.4-6.1-1-9c-4.7,1.6-7.2,6.2-10,10Z"/>
</g>
<path d="M566,197c-3.1,0-5.3-1.7-8-3c-3.7,1.2-4.8,1.7-7,5c1.4,2.9,1,5.8,1,9c-2.6,0-4.5-.3-7-1c-.3,.7-.7,1.3-1,2c-1,0-2,0-3,0v1c.7,1.3,1.3,2.7,2,4c1.6-.8,2.1-1,4-1c0,1,0,2,0,3c2.4-3.3,5.1-6.1,8-9c-.3-1.3-.7-2.7-1-4c3-1.6,3.8-2.6,7-1h1c0-1,0-2,0-3c1.3-.7,2.7-1.3,4-2Z" fill="#3B3B4C"/>
<g fill="#9A6DCC">
<path d="M612,203c0-1.8-4.4-4.7-6-6c-1,0-2,0-3,0c0,2.8,1.1,3.1,3,5c-1.3,1-2.7,2-4,3c0-1,0-2,0-3c-1,.3-2,.7-3,1c1.3,1.3,3.2,4,5,4c0-1.7,1.8-2.9,3-4c.7,.7,1.3,1.3,2,2c1-.7,2-1.3,3-2Z"/>
<path d="M668,204c-.7,0-1.3,0-2,0c.3-2.3,.7-4.7,1-7c-2.6,4.6-4,13.7-4,19c.3,0,.7,0,1,0c.5-3.7,1.1-6.7,3-10l1-2Z"/>
</g>
<g fill="#5F3B8F">
<path d="M555,207c2.2-1.6,4.1-3.1,6-5c-3.2-1.6-4-.6-7,1c.3,1.3,.7,2.7,1,4Z"/>
<path d="M547,216c0-1,0-2,0-3c-1.9,0-2.4,.2-4,1c-.7-1.3-1.3-2.7-2-4c-1.1,1.1-2,1.4-2,3c-3.5,7.6-6.5,6.2-14,6c0,.3,0,.7,0,1c2.9,0,11-1,13,1c1.9,.9,3.6,4,5,4c.3,0,.7,0,1,0c.3-2,.7-4,1-6l2-3Zm-8-3c2.5,0,6,3.2,6,6c-2.4,0-3.4-1-6-1c0-1.7,0-3.3,0-5Z"/>
</g>
<path d="M653,225c0-3.8-1.1-10.8-3-14c1.3,6.6,1.3,6.6-1,10v19l1-3c0-3-1-11,1-13c.7,.3,1.3,.7,2,1Z" fill="#9A6DCC"/>
<path d="M545,219c0-2.8-3.5-6-6-6c0,1.7,0,3.3,0,5c2.6,0,3.6,1,6,1Z" fill="#3B3B4C"/>
<path d="M615,226c0-3.7,.5-7.3,1-11c-.3,1-.7,2-1,3c-1.3-.3-2.7-.7-4-1c1.2,3.1,2.5,6.1,4,9Z" fill="#9A6DCC"/>
<path d="M666,220c-1.3,1.3-2.7,2.7-4,4c.3-2,.7-4,1-6c-1.5,2.9-2.8,5.9-4,9c1,1,2,2,3,3l5-5c-1.4-1.4-1-2.1-1-4v-1Z" fill="#7A42B9"/>
<g fill="#5F3B8F">
<path d="M537,241c0-.7,0-1.3,0-2c.7,.7,1.3,1.3,2,2c1.6-3.4,2.3-5.4,1-9c-.7,1.3-1.3,2.7-2,4c-.1-5.1,1.3-10,0-15c-2.7,2.7-.9,12.4-1,17c-.3,0-.7,0-1,0l1,3Z"/>
<path d="M653,226v-1c-.7-.3-1.3-.7-2-1c-2,2-1,10-1,13c.3,1,.7,2,1,3c3.2-3.2,2.1-9.7,2-14Z"/>
</g>
<path d="M656,231c-2.4,0-2.6-3.1-3-5c.1,4.3,1.2,10.8-2,14c-.3-1-.7-2-1-3l-1,3v1c1.3,1.3,2.7,2.7,4,4l1-2c-.3,0-.7,0-1,0c.8-4.1,1.7-8,3-12Z" fill="#7A42B9"/>
<g fill="#5F3B8F">
<path d="M662,230c-1-1-2-2-3-3c-2,2-2,2-3,4c-1.3,4-2.2,7.9-3,12c.3,0,.7,0,1,0c0-2.2,6.3-10.9,8-13Z"/>
<path d="M508,238c-2.1-2.1-2.1-2-5-2c-.7-1.3-1.3-2.7-2-4c-4.4,5.3-11,14.9-11,22c1.4-1.4,2.1-3.2,3-5c0,2,0,4,0,6c1.8-1.8,1.2-4.2,3-6c0,2.8-.4,5.2-1,8c.7,.3,1.3,.7,2,1c.3-2.7,.7-5.3,1-8c.3,1,.7,2,1,3l1-4c-.8-2.4-.6-2.8-3-4c0-2.6,1-3.6,1-6c3.4,0,3.8,.5,6,3l4-4Z"/>
<path d="M776,475c-.3,0-.7,0-1,0c-1.9-6.7,4-11,1-17c-5.6,10.7-9.4,19.4-17,29c.7,1,1.3,2,2,3c-1.3,.7-2.7,1.3-4,2c1,.7,2,1.3,3,2c1.9-1.9,3.4-3.8,5-6c-1.1-2.2-1.1-2.2,0-6c1.3,.3,2.7,.7,4,1c2.2-2.2,2.2-2.2,7-8Z"/>
</g>
<g fill="#3B3B4C">
<path d="M588,244c3-1,3-1,5-3c-1.7-.3-3.3-.7-5-1c-.3,1.3-.7,2.7-1,4c.3,0,.7,0,1,0Z"/>
<path d="M604,247l-4-3c-1.3,.7-2.7,1.3-4,2c0,.3,0,.7,0,1c5.9,4.3,7.6,7.6,12,12c.7,.3,1.3,.7,2,1c.7-1.3,1.3-2.7,2-4c-1,.3-2,.7-3,1c-.8-1.6-1-2.1-1-4c-2.2,0-2.2,0-6-3c.7-1,1.3-2,2-3Z"/>
</g>
<g fill="#5F3B8F">
<path d="M556,254c-3.1-2.1-5.4-4.4-8-7c-1,2-1,2-1,4c1.3,.7,2.7,1.3,4,2c-1.8,.6-3.3,1.2-5,2c2,2,2,2,5,4c-.7,.7-1.3,1.3-2,2c3.1,0,4.4-.5,7-2c0-1.7,0-3.3,0-5Z"/>
<path d="M612,256c-1.4-3.9-1.4-3.9-8-9c-.7,1-1.3,2-2,3c3.8,3,3.8,3,6,3c0,1.9,.2,2.4,1,4c1-.3,2-.7,3-1Z"/>
<path d="M576,267c.7-.3,1.3-.7,2-1c-2.8-3.2-4.5-6.2-9-4c2.9,1.3,4.9,2.7,7,5Z"/>
<path d="M477,266c1,.3,2,.7,3,1c0,1,0,2,0,3c1.7-.3,3.3-.7,5-1c-2-2-2-2-3-5c-1.7,.3-3.3,.7-5,1c0,.3,0,.7,0,1Z"/>
<path d="M769,297c.7,0,1.3,0,2,0c.3,.7,.7,1.3,1,2c.3,0,.7,0,1,0c-1.9-5-4-9.4-8-13c0,4.8,1,7.3,4,11Z"/>
</g>
<path d="M773,299c-.3,0-.7,0-1,0c-.3-.7-.7-1.3-1-2c-.7,0-1.3,0-2,0c.5,2.8,1.1,5.3,2,8c.3,0,.7,0,1,0c.3-1.7,.7-3.3,1-5v-1Z" fill="#3B3B4C"/>
<g fill="#5F3B8F">
<path d="M615,461c.3,0,.7,0,1,0c0-49.3,0-98.7,0-148c1,1,2,2,3,3c6.1-4,2.8-9.5,1-15c-.3,.3-.7,.7-1,1c-1.2-1.2-1.3-1-3-1c-.3-1-.7-2-1-3c-2,3.9-2,3.9-2,5c.7,0,1.3,0,2,0c0,2.6,.3,4.5,1,7c-1,.3-2,.7-3,1c-1.2-1.2-1.3-1-3-1l-4,5c1.3,.3,2.7,.7,4,1c.3-1,.7-2,1-3c0,2.2,0,3,1,5c.7-.7,1.3-1.3,2-2c1.9,1.9,1,130.7,1,145Z"/>
<path d="M606,324c-2.1-2.1-3-3-6-4c-5.4,2.3-10.3,2.2-16,2c3.7,1.2,7.2,1.1,11,1c-1.3,.7-2.7,1.3-4,2c1.3,.3,2.7,.7,4,1c-2,0-4,0-6,0c1.3,.7,2.7,1.3,4,2c-2.4,.6-4.7,1.2-7,2c6,.3,15.6-1.6,20-6Z"/>
</g>
<path d="M775,320c.1-6.1,1.5-14.8-2-20c-.3,1.7-.7,3.3-1,5c-.3,0-.7,0-1,0c0,5.7,0,11.3,0,17c.3,0,.7,0,1,0c0-5,0-10,0-15c.7-.3,1.3-.7,2-1c0,2.7,0,5.3,0,8c0,2,0,4,0,6c.3,0,.7,0,1,0Z" fill="#9A6DCC"/>
<path d="M776,325c-.7,.7-1.3,1.3-2,2c-.7-.7-1.3-1.3-2-2l-1,2c1.7,1.7,1.6,2,4,2c-.3,.7-.7,1.3-1,2c-.7,0-1.3,0-2,0c19.3,19.3,6.3,46.1,12,69h3c-2.2-4.5-1.5-15.2,0-20c0-13.6,2-34.7,4.6-48c1.2-5.8,4.7-10.9,5.2-16.7c.4-4.1-.9-8.1-.8-12.3c-1-.3-2-.7-3-1c.1,4.6,.7,10.1-.2,14.6c-1.9,10.1-7,17.5-6.8,28.4c-4.5-4.5-6.9-14.3-10-20Z" fill="#5F3B8F"/>
<path d="M772,331c.7,0,1.3,0,2,0c.3-.7,.7-1.3,1-2c-2.4,0-2.3-.3-4-2c-6.2-1.8-10.4-6.6-11-13c-1,0-2,0-3,0c.6,8.7,7.9,13.5,15,17Z" fill="#3B3B4C"/>
<g fill="#5F3B8F">
<path d="M775,320c-.3,0-.7,0-1,0c0-2,0-4,0-6c-1,3.4-1.1,6.5-1,10c1,.3,2,.7,3,1l-1-5Z"/>
<path d="M611,320c-2.6-2.6-3.6-.8-5-5l-3,3c4.2,1.4,2.4,2.4,5,5c1-1,2-2,3-3Z"/>
</g>
<path d="M608,323c-2.6-2.6-.8-3.6-5-5l-3,2c3,1,3.9,1.9,6,4l2-1Z" fill="#3B3B4C"/>
<g fill="#5F3B8F">
<path d="M577,328c.3-.3,.7-.7,1-1c-2.1-2.1-4.1-3.1-6-5c-.7,.3-1.3,.7-2,1c2.3,1.7,4.6,3.4,7,5Z"/>
<path d="M389,350c0-.7,0-1.3,0-2c-2.3,0-5.3,.7-7-1c-1,.3-2,.7-3,1c7.1,7.1,4.1,24.1,4,34c.3,0,.7,0,1,0c0-10.7,0-21.3,0-32c.9,3.6,1.1,6.3,1,10c.9-3.1,1.1-5.8,1-9c.7,.3,1.3,.7,2,1c0,10,0,20,0,30c.3,0,.7,0,1,0V350Z"/>
</g>
<path d="M672,364c1.6,0,1.9-.9,3-2c.3,1.7,.7,3.3,1,5c1.3-6.5,8.1-9.5,9-15c-4.5,1.5-10.9,7.8-13,12Z" fill="#9A6DCC"/>
<path d="M701,370c-1.2-3.5-3.3-6.6-5-10c-2.6,0-8.1,.9-10-1c.7-.7,1.3-1.3,2-2c-1.7,.3-3.3,.7-5,1c1.3-.7,2.7-1.3,4-2c-.7-1.3-1.3-2.7-2-4c-.9,5.5-7.7,8.5-9,15c-.3-1.7-.7-3.3-1-5c-1.1,1.1-1.4,2-3,2c-2,3.2-3.7,6.4-5,10c1.7-.3,3.3-.7,5-1c0,1.7,0,3.3,0,5c-.7-.7-1.3-1.3-2-2c0,1,0,2,0,3c2.5,10.6,11.2,5.8,20,6c-2.7,1.4-5.1,2.4-8,3c16.6,.6,11.7-6.7,19-18Z" fill="#7A42B9"/>
<path d="M647,372c1.1-1.1,1.1-1.1,2-8c-.9-3.9-.9-3.9-2-5c-.5,3.4-1.1,6.7-2,10c.7,.3,1.3,.7,2,1c0,.7,0,1.3,0,2Z" fill="#5F3B8F"/>
<path d="M706,371c0,.3,0,.7,0,1c.7,0,1.3,0,2,0c0,1.3,0,2.7,0,4c1.7-1.7,1.6-2,4-2c-.7-2.5-1-4.4-1-7c-3,1-3,1-5,4Z" fill="#7A42B9"/>
<path d="M670,379c0-1,0-2,0-3c.7,.7,1.3,1.3,2,2c0-1.7,0-3.3,0-5c-1.7,.3-3.3,.7-5,1l-1,4c.3,1,.7,2,1,3c1-1,1.8-1.4,3-2Z" fill="#5F3B8F"/>
<path d="M670,379c-1.2,.6-2,1-3,2c-.3-1-.7-2-1-3c-1.5,2.6-2,3.9-2,7c.7-1,1.3-2,2-3c0,2.3,0,4.7,0,7c1.3,.3,2.7,.7,4,1c.1-4.5-1-6.5,0-11Z" fill="#7A42B9"/>
<path d="M682,388c2.9-.6,5.3-1.6,8-3c-8.8-.2-17.5,4.6-20-6c-1,4.5,.1,6.5,0,11c-1.3-.3-2.7-.7-4-1c0-2.3,0-4.7,0-7c-.7,1-1.3,2-2,3c0,3.7,0,7.3,0,11c6.3-2.1,11.1-8,18-8Z" fill="#5F3B8F"/>
<path d="M791,412c-3.8-7.6-4.1-23.4-4-32c-1.5,4.8-2.2,15.5,0,20c1.2,4.7,2.1,9.1,2,14c.7-.7,1.3-1.3,2-2Z" fill="#9A6DCC"/>
<path d="M806,386l-2-4c-1.8,3.1-2,4.2-2,8l2,4c.3,0,.7,0,1,0c.3-2.7,.7-5.3,1-8Z" fill="#5F3B8F"/>
<path d="M394,393c-1.5-2.3-2.8-4.5-4-7c0,3,0,6,0,9c-.3,0-.7,0-1,0c-.3,.7-.7,1.3-1,2c-11.7,0-23.3,0-35,0c0,.3,0,.7,0,1c11.1-.1,28.7-2.4,39,1c-2.8,.6-5.1,1-8,1c1.4,.9,2.6,1.9,4.3,1.9c7.1,.1,13.4-3.6,19.9-4.1c13.4-1.1,28.2,.1,41.8,.2c.3-1.3,.7-2.7,1-4c-.4,.6-1.5,2.7-2,3c-3,1.8-40.9,.1-47,0c-1,1-1,1-4,2c-1.4-1.4-2.3-2.1-4-3c0-1,0-2,0-3Z" fill="#9A6DCC"/>
<path d="M719,402c0-2,0-2-2-8c-.7,1-1.3,2-2,3c-1-2-1-2.8-1-5c-.3,1.3-.7,2.7-1,4c-1.7-3.1-2-7.5-5-9c-1.3,1-2.7,2-4,3c.3-1.3,.7-2.7,1-4c-1.3,.7-2.7,1.3-4,2c0,.7,0,1.3,0,2c-4,0-5.5,2.3-9,4c-4,0-8,0-12,0c1.3,.3,2.7,.7,4,1c-1.8,1.8-4.5,1.6-7,2c1,.7,2,1.3,3,2c-2,.7-4,1.3-6,2c-3.1,15.6-1.4,15.2,14,15c.6,5.1,1,9.9,1,15c6.4,3.2,6.3,5,14,2c-.1-4.2-1.1-6.9,2-10c1.2,2.3,2.2,4.5,3,7c6.5-6.5,9.9-18.9,11-28Z" fill="#7A42B9"/>
<path d="M813,402c5.5-.5,10.2-3.6,12-9c-4.7,0-5.5,4.1-10,6c-1,2-1,2-2,3Z" fill="#3B3B4C"/>
<path d="M746,397c.7-.7,1.3-1.3,2-2c-2.8-.6-5.2-1-8-1c.4,4.5,.4,7.1,3,11c0-.7,0-1.3,0-2c.6-2.9,.9-3.9,3-6Z" fill="#7A42B9"/>
<path d="M813,402c1-1,1-1,2-3c-2.7,.3-5.3,.7-8,1c0,.3,0,.7,0,1c1,.3,2,.7,3,1c0,.3,0,.7,0,1l3-1Z" fill="#5F3B8F"/>
<path d="M787,400h-3v18c.3,0,.7,0,1,0c0-4.7,0-9.3,0-14c1.4,1.4,1.5,3.1,2,5c0-3,0-6,0-9Z" fill="#9A6DCC"/>
<g fill="#7A42B9">
<path d="M727,418c.3,0,.7,0,1,0c-.7-5.7-2.6-10.4-4-16c0,3.3,0,6.7,0,10c1,2,2,4,3,6Z"/>
<path d="M658,432c-.2-4.2-1.2-7.8,2-11c0,2,0,4,0,6c1.8-3.1,.9-7,2-9c2.5-4.6,6-7.1,6-13c-2.7,1.8-3,2-4,5c-.7,0-1.3,0-2,0c0,3,0,3-1,6c-.3-1.3-.7-2.7-1-4c-3,5-3.1,14.2-3,20c.3,0,.7,0,1,0Z"/>
<path d="M741,425c1.7,0,3.3,0,5,0c1-9-5-8.3-12-8c1,.3,2,.7,3,1c-1.4,1.4-1,2.1-1,4c-2.1-.5-4.4-1.6-6,0c3.8,.7,7.4,1.7,11,3Z"/>
<path d="M741,431c-3.1-6.4-6.8-3.1-12-5.4c-2.6-1.2-4-3.6-6-5.6c-1,1-2,2-3,3c-.3-.7-.7-1.3-1-2c-.3,0-.7,0-1,0c-2,6.7-4.4,7.7-3,15c.3,0,.7,0,1,0c4.4,0,3,3.8,3,7c-.3,0-.7,0-1,0l1,3c.3-.3,.7-.7,1-1c1.4,4.6,1.1,9.3,1,14c.7,0,1.3,0,2,0c0-.7,0-1.3,0-2c1,1,2,2,3,3c.3-.3,.7-.7,1-1c1.3,4.7,2.5,7.6,4,12c3,0,5,1,8,1c.5-3.6,1.1-6.8,3-10c1,1,1,1,1,2c1.1-1.1,1.1-1.1,2-8v-2c-1.6,0-1.9,.9-3,2c1.6-5.1,1.1-10.7,1-16c-1.4,0-1.1-.1-2-1c-1,.3-2,.7-3,1c-.3-2.3-.7-4.7-1-7c1.3-.7,2.7-1.3,4-2Z"/>
<path d="M713,549c-3.3-6.6-7.3-7.4-14-7c1,.7,2,1.3,3,2c-1.3,.7-2.7,1.3-4,2c2,0,4,0,6,0c0,.3,0,.7,0,1c3.6,2.5,9.7,7.3,5,12c2,3.9,2,3.9,2,5c.3,0,.7,0,1,0c.3-1,.7-2,1-3c-1.1-3.8-1.9-8.3,0-12Z"/>
<path d="M694,550c-.7,0-1.3,0-2,0c-.3,.7-.7,1.3-1,2c-1,0-2,0-3,0c-.2,6.4,1.5,16,10,16l1,3c1.2,4.3,1.6,8.6,2,13c.7-1.3,1.3-2.7,2-4c0,4.7,0,9.3,0,14c.3,0,.7,0,1,0c0-8.7,0-17.3,0-26c-1.3,.7-2.7,1.3-4,2c-.3-1.7-.7-3.3-1-5c-.7,0-1.3,0-2,0c2.3-.8,4.6-1.4,7-2c-9.7,.7-12.3-3.9-10-13Z"/>
<path d="M682,612c-2.6,0-4.5-.3-7-1c1.3-.3,2.7-.7,4-1c-1-1-2-2-3-3c-11,1.5-17.4,7.1-22,17c2.5,2.2,3.4,3.7,4,7c.3,0,.7,0,1,0c2.5-14.7,11-15.6,23-19Z"/>
</g>
<path d="M745,456c.3,0,.7,0,1,0c.1-8.3,1.4-18.6-5-25c-1.3,.7-2.7,1.3-4,2c.3,2.3,.7,4.7,1,7c1-.3,2-.7,3-1c.9,.9,.6,1,2,1c.7,0,1.3,0,2,0c0,4.7,0,9.3,0,14v2Z" fill="#9A6DCC"/>
<path d="M869,442c-.1-3.5,0-6.6,1-10c-1,0-2,0-3,0c-1.8,4.5-2.2,8.2-2,13c.3,0,.7,0,1,0c0-1.1,0-1.1,1-6c.7,1,1.3,2,2,3Z" fill="#5F3B8F"/>
<path d="M837,438c-1.3-2-2.7-4-4-6v2c.8,4.7,1.1,9.2,1,14c.3,0,.7,0,1,0c1.1-2.2,1.1-2.2,2-10Z" fill="#7A42B9"/>
<path d="M718,443c.3,0,.7,0,1,0c0-3.2,1.4-7-3-7c.9,5.9,.9,5.9,2,7Z" fill="#5F3B8F"/>
<path d="M699,446c1.1-1.1,1.1-1.1,3-7c-4.1,.5-7.5,.9-11,3c0,1,0,2,0,3c-1,.3-2,.7-3,1c.7,1.3,1.3,2.7,2,4c.3-1,.7-2,1-3c1.7-.3,3.3-.7,5-1c-.7,.7-1.3,1.3-2,2c1,0,2,0,3,0c.3-1,.7-2,1-3c.3,.3,.7,.7,1,1Z" fill="#7A42B9"/>
<g fill="#9A6DCC">
<path d="M386,448c0-1.8-2.7-3.7-4-5c-1.3,3.6-.6,5.6,1,9c.7,0,1.3,0,2,0c.3-1.3,.7-2.7,1-4Z"/>
<path d="M442,457c0-.3,0-.7,0-1c-14.8-.1-41.5-3-55,1h55Z"/>
</g>
<path d="M883,449c0-1.7,0-3.3,0-5c-4.7,3.7-5.4,4.8-8,10c0,3,0,3,1,6c2-3.9,4.3-7.5,7-11Z" fill="#3B3B4C"/>
<g fill="#5F3B8F">
<path d="M568,450c-.7-1.3-1.3-2.7-2-4c-1,0-2,0-3,0c1,.7,2,1.3,3,2c-4.7,0-9.3,0-14,0c5.2,1.6,11.4-.3,16,2Z"/>
<path d="M365,451c-.7,1-1.3,2-2,3c-.8-2.4-.6-2.8-3-4c-.9,3.1-1.1,5.8-1,9c.3,0,.7,0,1,0c0-1.3,0-2.7,0-4c.7,.7,1.3,1.3,2,2c.3-.7,.7-1.3,1-2c.7,.7,1.3,1.3,2,2v-6Z"/>
</g>
<path d="M676,474c4-4-1-10-6-10c1.5,4,3.7,6.5,6,10Z" fill="#3B3B4C"/>
<path d="M825,473c-.3-1-.7-2-1-3c-1.3,2.7-2.7,5.3-4,8c0-1.9,.4-2.6-1-4c-3.2,6.8-7.8,13.7-12,20c.7,.3,1.3,.7,2,1c1.8-1.8,2.2-2.6,3-5c.7,0,1.3,0,2,0c0,1,0,2,0,3c4.4-4.4,9.2-14,11-20Z" fill="#7A42B9"/>
<g fill="#3B3B4C">
<path d="M871,473l-4-2v1c.6,2.9,.9,3.9,3,6l1-5Z"/>
<path d="M884,481c3.7-2.7,6.5-4.6,8-9c-.7-.3-1.3-.7-2-1c-3.9,4.1-7.7,5.6-12,9c2,0,4,0,6,0c0,.3,0,.7,0,1Z"/>
<path d="M769,483c-1.3-.3-2.7-.7-4-1c-1.1,3.8-1.1,3.8,0,6c1.7,0,3.1-3.5,4-5Z"/>
<path d="M760,494c-1-.7-2-1.3-3-2c1.3-.7,2.7-1.3,4-2c-.7-1-1.3-2-2-3l-3,4c-.5,3.1-1,5.9-1,9c2.3-1.1,2.3-1.1,5-6Z"/>
<path d="M695,497c0-2.2,0-2.2-2-6c-.3,.3-.7,.7-1,1c-1.7-1.7-1.6-2-4-2c2.2,2.9,3.9,5,7,7Z"/>
</g>
<path d="M755,500c0-3.1,.5-5.9,1-9c-2.7,2.7-5.3,5.5-7,9c1.7,.3,3.3,.7,5,1c0,.3,0,.7,0,1l1-2Z" fill="#5F3B8F"/>
<path d="M809,501c0-1,0-2,0-3c-1-.3-2-.7-3-1c1.6,4.7-1,4.9-1,9c1.7,0,3.1-3.5,4-5Z" fill="#9A6DCC"/>
<path d="M640,507c-2.1-2.1-8.2-.9-11,0c1,.3,2,.7,3,1c-.7,.3-1.3,.7-2,1c.3,.7,.7,1.3,1,2c2.6,0,4.5-.3,7-1c-2,0-4,0-6,0c2.7-2.7,3.5-1.9,7-1c.3-.7,.7-1.3,1-2Z" fill="#7A42B9"/>
<path d="M631,511c-.3-.7-.7-1.3-1-2c.7-.3,1.3-.7,2-1c-1-.3-2-.7-3-1c-3,1-3,1-5,4c.7,1.3,1.3,2.7,2,4c-2.1,2.1-2,2.1-2,5c.7-.3,1.3-.7,2-1c0-3.1,2.8-4.9,5-7v-1Z" fill="#5F3B8F"/>
<path d="M645,511c-1.1-2.3-1.1-2.3-5-4c-.3,.7-.7,1.3-1,2c-3.5-.9-4.3-1.7-7,1c2,0,4,0,6,0c-2.5,.7-4.4,1-7,1v1c6.7-.1,6.7-.1,9,1c.3-.3,.7-.7,1-1c-.7-.7-1.3-1.3-2-2c2,.3,4,.7,6,1Z" fill="#9A6DCC"/>
<path d="M626,519c-.7,.3-1.3,.7-2,1c0-2.9-.1-2.9,2-5c-.7-1.3-1.3-2.7-2-4c-6.8,6.8-2.7,15.6,3,21c1-.3,2-.7,3-1c0-1,0-2,0-3c-3.5-2.7-3.5-4.7-4-9Z" fill="#7A42B9"/>
<g fill="#3B3B4C">
<path d="M838,522c-2.7-3.5-4.7-6.4-9-8c-3,1-3,1-6,1c.3,.7,.7,1.3,1,2c4.5,1.5,8.3,6,12,9c0-2.4,.3-2.3,2-4Z"/>
<path d="M875,516c-.3-.7-.7-1.3-1-2c-2.7,.7-5.3,1.3-8,2c3.1,.9,5.8,1.1,9,1c0-.3,0-.7,0-1Z"/>
</g>
<path d="M647,526c-1.5-3-3.3-4.5-4-8c.6,6.2-.9,6.9-5,11c1,1,1,1,1,4c4,0,6.6-3.5,8-7Z" fill="#9A6DCC"/>
<path d="M850,532c-5.1-2.3-8.1-6.1-12-10c-1.7,1.7-2,1.6-2,4c3.5,7,11.6,10.3,19,10c0-.3,0-.7,0-1c-1.7,0-3.3,0-5,0c0-1,0-2,0-3Z" fill="#5F3B8F"/>
<path d="M636,538c0-4,0-4-2-6c-.7,1-1.3,2-2,3c0,1.7,0,3.3,0,5c1.3-.7,2.7-1.3,4-2Z" fill="#7A42B9"/>
<g fill="#3B3B4C">
<path d="M855,535c0-1,0-2,0-3c-1.7,0-3.3,0-5,0c0,1,0,2,0,3c1.7,0,3.3,0,5,0Z"/>
<path d="M755,547c-1.2-3.4-.8-5,1-8c-.3-.3-.7-.7-1-1c-2.1,2.6-4.1,5.2-6,8c.3,1,.7,2,1,3c.7-.7,1.3-1.3,2-2c.7,.7,1.3,1.3,2,2l1-2Z"/>
<path d="M739,548c0-1.7,0-3.3,0-5c-.9,3.1-1.1,5.8-1,9c-2.8-1.4-2.5-3.1-3-6c-.5,2.2-1,4-2,6c0,3.7,0,7.3,0,11c1.9-2.8,1.5-3,5-3c0-1.7,0-3.3,0-5c.3,0,.7,0,1,0v-7Z"/>
</g>
<path d="M713,561c.7-.3,1.3-.7,2-1c.2-4.2,1.2-7.8-2-11c-1.9,3.7-1.1,8.2,0,12Z" fill="#9A6DCC"/>
<path d="M814,554c2-.7,4-1.3,6-2c0-1,0-2,0-3c-3.3,.6-6,1.4-9,3c1.1,1.1,1.4,2,3,2Z" fill="#3B3B4C"/>
<path d="M739,555c-.3,0-.7,0-1,0c0,1.7,0,3.3,0,5c-3.5,0-3.1,.2-5,3c0-3.7,0-7.3,0-11c-1.2,3.7-5.2,30.2-5,34h1c0-4.9,1.9-9.3,3-14c2.2-4.4,2.5-10,7-10c.3-.7,.7-1.3,1-2c-.3,0-.7,0-1,0c0-1.7,0-3.3,0-5Z" fill="#7A42B9"/>
<path d="M711,564c0-1.1,0-1.1-2-5c-1.3,1.3-3.2,4-5,4c-2.4,.6-4.7,1.2-7,2c.7,0,1.3,0,2,0c1.7,0,3.3,0,5,0c0,.7,0,1.3,0,2c1.3-1.3,2.7-2.7,4-4c0,1.7-.2,1.8,1,3l2-2Z" fill="#5F3B8F"/>
<path d="M754,563c-.7-.7-1.3-1.3-2-2c-2.8,1.4-11.9,3.1-7,8c3.1-2,5.6-4.4,9-6Z" fill="#3B3B4C"/>
<path d="M709,566c-1.2-1.2-1-1.3-1-3c-1.3,1.3-2.7,2.7-4,4c0-.7,0-1.3,0-2c-1.7,0-3.3,0-5,0c.3,1.7,.7,3.3,1,5c1.3-.7,2.7-1.3,4-2c1.1,0,1.1,0,5-2Z" fill="#9A6DCC"/>
<path d="M636,565c-.3,1-.7,2-1,3c-.7-1-1.3-2-2-3c0,19.7,0,39.3,0,59c1-.3,2-.7,3-1c0-19.3,0-38.7,0-58Z" fill="#7A42B9"/>
<path d="M699,571l-1-3c.1,13,.8,21.3-5,33c3,1,3,1,5,2c.3,0,.7,0,1,0c.3-1,.7-2,1-3c0-3.1-1.5-4.7-2-7c-.6-3,1-17.5,1-22Z" fill="#9A6DCC"/>
<path d="M805,573c4,4,5.5,4.4,11,4c0-1,0-2,0-3c-3.8-.5-6.1-1.5-9-4l-2,3Z" fill="#3B3B4C"/>
<path d="M703,594c0-4.7,0-9.3,0-14c-.7,1.3-1.3,2.7-2,4c-.4-4.4-.8-8.7-2-13c0,4.5-1.6,19-1,22c.5,2.3,2,3.9,2,7c.3,0,.7,0,1,0c.7-2,1.3-4,2-6Z" fill="#5F3B8F"/>
<g fill="#7A42B9">
<path d="M866,590c2.9,0,5-1,7-3c-1-.7-2-1.3-3-2c0,1.8-2.7,3.7-4,5Z"/>
<path d="M698,603c-2-1-2-1-5-2c-8.1,5-8.1,5-13,6c1,.3,2,.7,3,1c-.7,.7-1.3,1.3-2,2c2.3,0,4.7,0,7,0c0,.3,0,.7,0,1c5-1.4,5-1.4,10-8Z"/>
<path d="M865,622c0-5.5-1.3-8-3-13c-.3,.3-.7,.7-1,1c-.7-.7-1.3-1.3-2-2c-4.9,1.4-7.3-1-12-1c-.3-.7-.7-1.3-1-2l-4,3c2.2,2.2,.8,4.2-1,6c-1-.7-2-1.3-3-2c-9.2,6.9-20,14-28,22c.7,.3,1.3,.7,2,1c-3.6,3.6-11.1,8.2-13,12c-3-1-3-1-4-2c-1.1,5.6-3.7,5.3-8,8c-3.1,1.9-5,5.8-8.2,7.9c-7.1,4.5-13.3,4.6-19.8,11.1c-.7-.7-1.3-1.3-2-2c-6.4,2-4.4,5.8-10,8c0,.7,0,1.3,0,2c3.1,.6,10.2,2.9,13,2c2.5-.8,4.2-5.5,7.6-6c1.4-.1,1.4,0,2.4,1c2.2-2.2,4.1-2.9,7-4c-.3-1.3-.7-2.7-1-4c14.9,2.3,17.5-9,31-9c0,.3,0,.7,0,1c3-2,6.4-3.4,9-6c0-1.3,0-2.7,0-4c4.3-2.3,8-4.8,13-3c2-2,4.9-2.9,7-5c0-4.2,7.4-6.8,11-8c6.1-3.1,13.3-8,18-13Z"/>
</g>
<path d="M584,607c0-.3,0-.7,0-1c-5.3,0-10.7,0-16,0c-1,.7-2,1.3-3,2c.3,.3,.7,.7,1,1c-.3,.3-.7,.7-1,1c1,.3,2,.7,3,1c-1.3,0-2.7,0-4,0c5.2,3.5,13.9,2.1,20,2c0-.3,0-.7,0-1c-4.3,0-8.7,0-13,0c.3-.3,.7-.7,1-1c-.7-1.3-1.3-2.7-2-4c4.7,0,9.3,0,14,0Z" fill="#5F3B8F"/>
<path d="M771,607c0-.3,0-.7,0-1c-3.2-.1-5.9,.1-9,1c2.9,.6,3.9,.9,6,3c.9-1.3,1.4-3,3-3Z" fill="#9A6DCC"/>
<path d="M883,608c-1-.7-2-1.3-3-2c-.3,1-.7,2-1,3c-1,0-2,0-3,0c.3,1.3,.7,2.7,1,4c2.2-1.6,4.1-3.1,6-5Z" fill="#7A42B9"/>
<path d="M680,607h-4c1,1,2,2,3,3c-1.3,.3-2.7,.7-4,1c2.5,.7,4.4,1,7,1l6-1c0-.3,0-.7,0-1c-2.3,0-4.7,0-7,0c.7-.7,1.3-1.3,2-2c-1-.3-2-.7-3-1Z" fill="#5F3B8F"/>
<g fill="#7A42B9">
<path d="M771,607c-1.6,0-2.1,1.7-3,3c-2.1-2.1-3.1-2.4-6-3c-3,1-3.9,1.8-6,4c1.3-.3,2.7-.7,4-1c.3,1,.7,2,1,3c3.4-2.2,3.4-2.2,9-2c1.1,0,1.1,0,6-1c-1.3-2.6-2.3-2.5-5-3Z"/>
<path d="M779,614c-.7-.3-1.3-.7-2-1c-1.2,1.2-1.3,1-3,1c4.1,15.9-13.7,19-15,2c-1.6,0-1.9-1-4-1c-1.2,4-1,7.9-1,12c.7,.7,1.3,1.3,2,2c0-1.7,0-3.3,0-5c1,.3,2,.7,3,1c-1.7,1.7-2,4.6-2,7c.3-.7,.7-1.3,1-2c12.4,7.1,25.2-2.2,21-16Z"/>
</g>
<path d="M838,612c1,.7,2,1.3,3,2c1.8-1.8,3.2-3.8,1-6l-4,4Z" fill="#9A6DCC"/>
<path d="M761,613c-.3-1-.7-2-1-3c-1.3,.3-2.7,.7-4,1l-1,4c2.1,0,2.4,1,4,1l2-3Z" fill="#5F3B8F"/>
<path d="M779,614c0-1.7-1.8-2.9-3-4c-4.9,1-4.9,1-6,1c2,2,2,2,4,3c1.7,0,1.8,.2,3-1c.7,.3,1.3,.7,2,1Z" fill="#9A6DCC"/>
<g fill="#5F3B8F">
<path d="M608,623c-2.3-3.4-4.4-7.8-8-9c0,1.9,.4,2.6-1,4c1,0,2,0,3,0c-.7,1-1.3,2-2,3c3.3,0,5.3,2,8,2Z"/>
<path d="M757,632c0-2.4,.3-5.3,2-7c-1-.3-2-.7-3-1c0,1.7,0,3.3,0,5c-.7-.7-1.3-1.3-2-2l-1,1c-1.2,5.7-1.2,5.7,0,8l4-4Z"/>
<path d="M752,638c0-.3,0-.7,0-1c-2.5-.7-4.4-1-7-1c-4.9,.9-4.9,.9-6,2c.3,.7,.7,1.3,1,2c-.3,.3-.7,.7-1,1c1,.7,2,1.3,3,2c3.9-1.2,6.9-2.4,10-5Z"/>
</g>
<g fill="#7A42B9">
<path d="M753,636c-1.2-2.3-1.2-2.3,0-8c-2.7,2.7-5.3,5.3-8,8c2.6,0,4.5,.3,7,1c0,.3,0,.7,0,1l1-2Z"/>
<path d="M742,643c-1-.7-2-1.3-3-2c.3-.3,.7-.7,1-1c-.3-.7-.7-1.3-1-2c-23.7,3.4-38.1-5.9-57,13c3,1,3,1,5,2c0,.3,0,.7,0,1c1.7,0,3.2-2.3,4.5-3.5c3-2.7,6.9-3.7,10.5-5.5c0-.7,0-1.3,0-2c8.1,.2,31.9-3.3,38,1l2-1Z"/>
</g>
<g fill="#5F3B8F">
<path d="M795,645c1,1,1,1,4,2c1.9-3.8,9.4-8.4,13-12c-.7-.3-1.3-.7-2-1c-3.9,2.3-13.1,7.2-15,11Z"/>
<path d="M836,643c4-2.6,7.7-4.4,11-8c-3.6,1.2-11,3.8-11,8Z"/>
</g>
<g fill="#9A6DCC">
<path d="M607,721c0-19.2,.1-38.4,.1-57.6c0-8,1.4-18.8-1.1-26.4c0,28,0,56,0,84c.3,0,.7,0,1,0Z"/>
<path d="M613,721c.3,0,.7,0,1,0c0-18.2,.1-36.4,.1-54.6c0-8,1.3-18.8-1.1-26.4v81Z"/>
<path d="M610,645c0,1,0,2,0,3c-.7-.7-1.3-1.3-2-2c.3,3.6-.4,8.3,3,10c.8-4.2,1.5-7.3-1-11Z"/>
</g>
<g fill="#5F3B8F">
<path d="M829,648c-5-1.8-8.7,.7-13,3c0,1.3,0,2.7,0,4c4.7-1.6,8.8-4.5,13-7Z"/>
<path d="M554,685c-1.8-1.8-17.7-5.5-21-6c1.3,2.6,2.3,2.5,5,3c-.7,.7-1.3,1.3-2,2c4.8,2.9,6.9,1.3,12,0c-1.3,.7-2.7,1.3-4,2c3.4,0,6.6-.5,10-1Z"/>
<path d="M556,694c1-3.1,.9-4,0-7c-2,.7-4,1.3-6,2c1.3,.7,2.7,1.3,4,2c.7-.7,1.3-1.3,2-2c0,1.7,0,3.3,0,5Z"/>
<path d="M536,694c-.7-.3-1.3-.7-2-1c1.3-1.3,2.7-2.7,4-4c-1.8-1.8-5.7,.2-8,1c1,.3,2,.7,3,1c-1,.3-2,.7-3,1c3.8,2,3.8,2,6,2Z"/>
</g>
<path d="M978,865c-.7,.3-1.3,.7-2,1c0-16.2,3.3-54.2-1-68c-1.3,.3-2.7,.7-4,1c0,2.4,.3,2.3,2,4c-1.2,0-5.4-1.2-6-1c-5,2-7.9,4-14,4c-5.1,.7-8.1,4.1-13,5c.3,1,.7,2,1,3c3.5-.2,5.9,.2,9,2c1.3-.3,2.7-.7,4-1c2.9,13.5,2.1,27.3,2,41c.7-2.7,1.3-5.3,2-8c.7,2.7,1.3,5.3,2,8c1.9-3.7,4.2-1.8,5-7c.7,.3,1.3,.7,2,1c0,4.3,0,8.7,0,13c1,.3,2,.7,3,1c0,1.7,0,3.3,0,5c.3-1.3,.7-2.7,1-4c6.8,6.8,4,71.1,4,84c.3,0,.7,0,1,0c-.2-16-.3-32-.4-47.9c-.1-6.8-1.2-15.3,.2-21.8c.7-3.4,2.9-5.9,5.2-8.3c.3-.7,.7-1.3,1-2c-3.1-1-3-.9-4-4Z" fill="#7A42B9"/>
<path d="M953,806c6.1,0,9-2,14-4c.6-.2,4.8,1,6,1c-1.7-1.7-2-1.6-2-4c-4.4,.6-14.4,4.6-18,7Z" fill="#9A6DCC"/>
<g fill="#5F3B8F">
<path d="M456,804c-14.6-4.3-38.5-1.1-54-1c-.9,5.1-4.1,8.1-5,13c1,0,2,0,3,0c1-3,1-3,3-6c.7,1.3,1.3,2.7,2,4c.3-2,.7-4,1-6c-.7-.3-1.3-.7-2-1c2-2,15.8-.9,20-2c-7,.1-14.2,.7-21-1c17.7,0,35.3,0,53,0Z"/>
<path d="M252,837c.3,0,.7,0,1,0c-.1-4.4-.3-8.7,1-13c.3,1.3,.7,2.7,1,4c1.5-4.4,.6-7.5-4-9c1.4,5.9,1.1,12,1,18Z"/>
</g>
<g fill="#7A42B9">
<path d="M910,859c-1.7-3.5-13.6-6.6-18-7c-4,1.3-7.9,1.1-12,1c-1,2-1,2-1,5c2,0,4,0,6,0c-.7,.7-1.3,1.3-2,2c1.7-.3,3.3-.7,5-1c-.7,.7-1.3,1.3-2,2c3.9,3,3.9,3,5,3c0-.3,0-.7,0-1c9,.7,7.9,3.8,13,10c2.6-3.9,4.2-3.1,8-5c.3,.3,.7,.7,1,1c1.6-4.7-1.5-5.6-3-10Z"/>
<path d="M1032,859c-10.9-5.5-19.1-10-32-6c1.7,.3,3.3,.7,5,1c-3.1,1.9-5.4,2.2-9,2c-1.2,2.4-1.6,2.2-4,3c.3,.7,.7,1.3,1,2c2.6,0,4.5,.3,7,1c.3-.7,.7-1.3,1-2c0,1,0,2,0,3c-1.3,.7-2.7,1.3-4,2c7.4-.1,12.8,.9,19,5c7.6-2.5,5.4,3.4,9,7c-.3,.3-.7,.7-1,1l1,1c4.4,1.8,3.9,4.6,8,6c.7,4.2,1.1,7.8,0,12c5.8,0,5.6-4.6,6-9c5.8,5.8-1.4,8.7-1,16c.3-1,.7-2,1-3c1.2,1.2,1.3,1,3,1c2.5-5,.3-18.5-1-24c1.7,0,1.8,.2,3-1c.7,.7,1.3,1.3,2,2c.7-.7,1.3-1.3,2-2c-1.8-5.3-7.6-11.6-12-15c0,1.9,.4,2.6-1,4c-2.2-2.2-1.8-3.8-4-6c.3-.3,.7-.7,1-1Z"/>
<path d="M979,864c4.4-.6,7-3.1,9-7c-3.8,1.8-6.1,4.1-9,7Z"/>
</g>
<path d="M1036,862l-4-3c-.3,.3-.7,.7-1,1c2.2,2.2,1.8,3.8,4,6c1.4-1.4,1-2.1,1-4Z" fill="#5F3B8F"/>
<path d="M923,887c.3-6.8-.9-15.9-6-21c-2,5.2,5.2,13.4,5,21c.3,0,.7,0,1,0Z" fill="#7A42B9"/>
<path d="M1055,896c-1.4-4.1-1.9-8.2-4-12c-.2,5.8-.2,7.8,4,12Z" fill="#9A6DCC"/>
<g fill="#7A42B9">
<path d="M1050,909c0-5.3,0-10.7,0-16c-1-.3-2-.7-3-1c-1.6,7,1.4,10.4,3,17Z"/>
<path d="M890,908c-3.1,0-8.4-2.8-12-4c1-.7,2-1.3,3-2c-5.5,.7-10.1,1.4-15,4c6.2-1.1,8.2-.9,14,1c-.7,.7-1.3,1.3-2,2c2.3-.3,4.7-.7,7-1c-1,.7-2,1.3-3,2c3.8,0,4.9-.2,8-2Z"/>
<path d="M900,947c.3,0,.7,0,1,0c0-11.7,0-23.3,0-35c1,0,2,0,3,0c0,2.7,0,5.3,0,8c2,0,4,0,6,0c-.1-3.8-.8-6.2,2-9c-.7-.3-1.3-.7-2-1c0-2.2,.7-5.3-1-7c-.7,.7-1.3,1.3-2,2c-3-3-5-1-9-1c.7,.7,1.3,1.3,2,2c-2.3,.8-4.6,1.4-7,2c2.3,0,4.7,0,7,0c0,13,0,26,0,39Z"/>
<path d="M1019,958c1,.3,2,.7,3,1c1.5-2.6,2-3.9,2-7c-1.9,1.9-3.4,3.8-5,6Z"/>
<path d="M1035,962l2-2c-2-3.7-2-3.7-2-6c-1,.3-2,.7-3,1c1.9,4.8,1.9,4.8,3,7Z"/>
</g>
<path d="M620,1043c.3-.7,.7-1.3,1-2c2.3,0,5.3,.7,7-1c-1.7-.3-3.3-.7-5-1c1.5-9.7,4.2-4.8,11-7c-9-5.6-17.3,1.1-14,11Z" fill="#3B3B4C"/>
<path d="M939,1038c-68.5,.1-136.7-1.2-205-1.1c-23.9,0-47.7-.1-71.5,0c-5.2,0-8.4-1.3-6.5,5.1c94.1,.1,188-2.4,282-2c.3-.7,.7-1.3,1-2Z" fill="#5F3B8F"/>
<path d="M636,1043c-.7-.3-1.3-.7-2-1c-.3,.3-.7,.7-1,1c-3.4-3.4-6.1,1.4-8,4c.3,.3,.7,.7,1,1h4c-1-.3-2-.7-3-1c2.8-2.8,5.3-2,9-3v-1Z" fill="#3B3B4C"/>
<path d="M630,1048c3,0,4-1.9,6-4c-3.7,1-6.2,.2-9,3c1,.3,2,.7,3,1Z" fill="#5F3B8F"/>
<g fill="#9A6DCC">
<path d="M416,1087c-.6-2.4-1.2-4.7-2-7c-3,0-3,0-5,1c0,2.2-.4,3.9-1,6c1.4,.3,2.7,.7,4,1c.3-1,.7-2,1-3c1,1,1,1,3,2Z"/>
<path d="M266,1092c-.3-1-.7-2-1-3c-3.6,3.6-2.1,11.9-2,17c-.7,.3-1.3,.7-2,1c.1-7.6,1.1-16.7-1-24c0,9,0,18,0,27c-1,0-2,0-3,0c1.3,.3,2.7,.7,4,1c.8-2.4,.6-2.8,3-4c0-4.7,0-9.3,0-14c1.5,5.9,1.1,12,1,18c1.3-.3,2.7-.7,4-1c-1,0-2,0-3,0c0-6,0-12,0-18Z"/>
</g>
<g fill="#3B3B4C">
<path d="M310,1083c-.1,8.8-1,18.4,1,27c1.4,.3,2.7,.7,4,1c.3-1,.7-2,1-3c-.7-.3-1.3-.7-2-1c0-7.7,0-15.3,0-23c-1.4-.3-2.7-.7-4-1Z"/>
<path d="M591,1083c-.1,8.8-1,18.4,1,27c1.4,.3,2.7,.7,4,1c.3-1,.7-2,1-3c-1-.3-2-.7-3-1c0-7.7,0-15.3,0-23c-1-.3-2-.7-3-1Z"/>
</g>
<path d="M808,1092c-.7-.7-1.3-1.3-2-2c1.3-.7,2.7-1.3,4-2c-.3-1.3-.7-2.7-1-4c-1.3-.3-2.7-.7-4-1c-1.9,8.6-1,18.2-1,27c.3,0,.7,0,1,0c0-5.7,0-11.3,0-17c1-.3,2-.7,3-1Z" fill="#9A6DCC"/>
<path d="M952,1093c0-3.3,0-6.7,0-10c-1.3,.3-2.7,.7-4,1c0,8.7,0,17.3,0,26c1.3-.3,2.7-.7,4-1c-.3-.7-.7-1.3-1-2c1,0,2,0,3,0c-2.8-2.8-2.1-5.2-2-9c-.5,2.7-.4,3.7-3,5c0-6,0-12,0-18c.7-.3,1.3-.7,2-1c-.1,3.2,.1,5.9,1,9Z" fill="#5F3B8F"/>
<path d="M206,1104c-2.1-3.9-2.9-8.9-6-12c0,5.7,0,11.3,0,17c-1,.3-2,.7-3,1c0-8.7,0-17.3,0-26c-2.4,7.9-1.1,18.7-1,27c1.7,0,3.3,0,5,0c0-4,0-8,0-12c3,1.5,2,3.5,5,5Z" fill="#9A6DCC"/>
<g fill="#3B3B4C">
<path d="M270,1084c-1.7,0-3.3,0-5,0c0,1,0,2,0,3c1.4,.3,2.7,.7,4,1c.3-1.4,.7-2.7,1-4Z"/>
<path d="M735,1110c0-8.3,0-16.7,0-25c-1.4-.3-2.7-.7-4-1c0,8.3,0,16.7,0,25c1.4,.3,2.7,.7,4,1Z"/>
<path d="M1026,1092c-1.7,0-3.3,0-5,0c0-1.7,0-3.3,0-5c-1-.3-2-.7-3-1c0,1.7,0,3.4,0,5c-2,1-2,1-3,3c1,.3,2,.7,3,1c-.2,5.7-.5,10.7,2,16c1.7,0,3.4,0,5,0c.3-1.4,.7-2.7,1-4c-1.7,0-3.3,0-5,0c0-3.7,0-7.3,0-11c3.6-.9,3.8-.4,5-4Z"/>
</g>
<g fill="#5F3B8F">
<path d="M397,1092c-2.2-.8-8-1.3-8,2c.7,.3,1.3,.7,2,1c0,.7,0,1.3,0,2c1.1-1.1,1.1-1.1,6-2c-1.3-.7-2.7-1.3-4-2c1.3-.3,2.7-.7,4-1Z"/>
<path d="M516,1092c-3.4-1.2-5-.8-8,1c1,1,1,1,1,4c1.1-1.1,1.1-1.1,6-2c-1.3-.7-2.7-1.3-4-2c1.7-.3,3.3-.7,5-1Z"/>
</g>
<g fill="#3B3B4C">
<path d="M851,1110c-.3-7.8-2.8-16.2,8-14c0,4.3,0,8.7,0,13c1,.3,2,.7,3,1c.1-4.3,2-18.6-4.1-19.1c-2.8-.2-3.6-.5-4.9,2.1c-1.7-.3-3.3-.7-5-1c0,5.7,0,11.3,0,17c1,.3,2,.7,3,1Z"/>
<path d="M1066,1104c-1.6-4.8-1.9-10.3-7-12c0,4.8,8.1,19.1,4,23c-1.6,1.6-2.7,.3-4,3c9.1,3.5,12.7-18.2,15-25c-1-.3-2-.7-3-1c-1.4,3.4-2.6,9.6-5,12Z"/>
<path d="M412,1111c0-6,0-12,0-18c-1.4-.3-2.7-.7-4-1c0,6,0,12,0,18c1.4,.3,2.7,.7,4,1Z"/>
<path d="M617,1111c0-6,0-12,0-18c-1.4-.3-2.7-.7-4-1c0,6,0,12,0,18c1.4,.3,2.7,.7,4,1Z"/>
<path d="M693,1095c2.7,0,5.3,0,8,0c.3,1.4,.7,2.7,1,4c-7.8-.7-15.3,7.7-8,12c.6,.3,5.1,0,6,0c.3-.7,.7-1.3,1-2c1.7,.3,3.4,.7,5,1c0-6.6,2.6-18.6-7.1-18.4c-3.5,.1-4.4,.3-5.9,3.4Zm3,12c0-4.9,1.8-5.4,6-4c-.3,1.3-.7,2.6-1,4c-1.6,0-3.3,0-5,0Z"/>
<path d="M990,1110c-.2-6-1.8-14,6-15c0-1,0-2,0-3c-3.6,1-5.4,1.2-9,0c0,5.7,0,11.3,0,17c1,.3,2,.7,3,1Z"/>
<path d="M1056,1092c-3.5,1.2-5.5,.7-9,0c0,6,0,12,0,18c1.4,.3,2.7,.7,4,1c-.1-5.1-.3-10,1-15c1.4-.3,2.7-.7,4-1c0-1,0-2,0-3Z"/>
</g>
<g fill="#5F3B8F">
<path d="M784,1102c.3,0,.7,0,1,0c.3-4-.3-6-3-9l-1,3c-.3,1-.7,2-1,3c-2,0-4,0-6,0c0-.7,0-1.3,0-2c0,1,0,2,0,3c2.7,0,5.3,0,8,0c.3-1,.7-2,1-3c.3,1.7,.7,3.3,1,5Z"/>
<path d="M870,1096c-.3,0-.7,0-1,0c0-1,0-2,0-3c-3.8,3.8-4.2,6.8-4,12c.3,0,.7,0,1,0c-.1-4.5-.2-4.8,3-8l1-1Z"/>
<path d="M509,1098c-.3,0-.7,0-1,0c0,2.3,0,4.7,0,7c-2.7-4-1.9-6.5-1-11c-3.3,3.3-2.1,8.6-2,13c.3,0,.7,0,1,0c1.4-1.4,2.1-1,4-1c-1.7-1.7-1-5.6-1-8Z"/>
</g>
<g fill="#FFFFFF">
<path d="M229,1099c2.7,0,5.4,0,8,0c-.3-1.4-.7-2.7-1-4c-4.6-.1-5.5-.6-7,4Z"/>
<path d="M886,1099c2.4,0,4.7,0,7,0c-.3-1.4-.7-2.7-1-4c-1.7,0-3.3,0-5,0c-.3,1.4-.7,2.7-1,4Z"/>
</g>
<path d="M1008,1109c1.7,.3,3.3,.7,5,1c0-4.9,.6-10.2-1-15c0,4.3,0,8.7,0,13c-2-1-2-1-3-2c-4.9,1-4.9,1-6,1c3.9,.9,3.9,.9,5,2Z" fill="#9A6DCC"/>
<path d="M381,1110c-2.5-5,1.3-8.8-2-14c-.3,1-.7,2-1,3c-1.7,0-3.3,0-5,0c0,.3,0,.7,0,1c2,0,4,0,6,0c-.7,.7-1.3,1.3-2,2c.7,.3,1.3,.7,2,1c-.3,1.3-.7,2.7-1,4c-1.3,0-2.7,0-4,0c1.3,.7,2.7,1.3,4,2c0,.3,0,.7,0,1h3Z" fill="#5F3B8F"/>
<path d="M866,1105c2.7,7,6.7,5.1,13,4c.3-1,.7-2,1-3c-9.5,0-11,3-11-9c-3.2,3.2-3.1,3.5-3,8Z" fill="#3B3B4C"/>
<path d="M471,1107c2.4,0,4.7,0,7,0c0-1.7,0-3.3,0-5c-2,0-4,0-6,0c-.3,1.7-.7,3.4-1,5Z" fill="#FFFFFF"/>
<path d="M945,1110c-5-1.7-9.8,.4-15-1c0-2,0-4,0-6c-.3,1.3-.7,2.7-1,4c-.7,0-1.3,0-2,0c-.3,1-.7,2-1,3c-4.7,0-9.3,0-14,0c9.3,2.8,23.2,1,33,1c0-.3,0-.7,0-1Z" fill="#9A6DCC"/>
<path d="M685,1109c-1-1-1-1-2-3c-4.9,1-4.9,1-6,1c1.3,1,2.7,2,4,3c-1.7,0-3.3,0-5,0c3.2,1.6,5.7,.1,9-1Z" fill="#5F3B8F"/>
</svg>
